<svg xmlns="http://www.w3.org/2000/svg" xml:space="preserve" style="fill-rule:evenodd;clip-rule:evenodd;stroke-linejoin:round;stroke-miterlimit:2" viewBox="0 0 1800 500"><path d="M117 219c1 3-3-2-5 1 1 4 4 2 3 5 1 0 6 0 4-2-5 0 5-4-2-4m-22-99-1 2zm213 35 3-1q1-3-1-5c-1 3-5 0-4 3 0 1 4 0 3 2m2 16c5-2 3 4 7 4-1-2-3-9-7-4m-103 94v-1q-2 0-1-1c-2 0 1 3 1 2m24 47h-2v2h3zm-22-109q-1-1-1 1zm38 141 1-2h-1zm-34-166 2 1v-2q1 2-2 1m35 124h-1v-1c-3 0 0 1 1 1m14 48 2-1zm-4-26 2 1q0-2-2-1m-3-29h-2zm4-13 2-2zm-26-118h1l-2-3zm39 167 1 1v1zm9-10 1-1zm-9-51v-2zm-14-63 1 2h2l-1-1q2 0 1-1zm22 70q0 2 0 0c-2 0 0 2-2 0 0 3 5 0 2 0m-35-130-1-1c1 1-2 1 1 2m45 179-1 2zm-19-97q-1-1 0 0m0 0h3l-1-1zm11 41v1c-3 1 3 1 0-1m13 43-3 2c0-2 4 1 3-2m-4-16-1-2zm-28-119v-1h-2l1 1zm12 37 3-2zm-8-46h-2l2 2zm10 31-2 1zm2 6-1 1c0 1 3 0 1-1q0 2 0 0m10 39-1-2zm10 29v-1zm-21-87c-4-1-1 0-2 2zm-7-28v-2s-3 0 0 2m6 19h2l-2-2v2m24 87 2-1zm-13-85v-2l-2 1zm20 51-1-1zm-2-18h-1m0-12-1 1 1 1zm34 69q3-2-1-2zm-157 9q0-1 0 0m25 36v-1h1q-4-3-2 1" style="fill:#fff;fill-rule:nonzero"/><path d="M207 313c-2 1-2-2 0 0l-1 3zm18 14 1-1zm15-36q2 0 0 0m-35 37 2-1zm-8-41-2 1zm84 19h-4c0 2 1-1 2 1v1h-2l2 1zm-65 40v1zm56-23q2 0 0 0m-22 14q-1 0 0 0m20-21q2-1 0 0m-33 36-2 2q3 0 2-2m54-41 1 3 1-1zm5-21-2 1 2 1-3 2-1 1c3 2 2-3 2 0q4 0 2-3h3l-2-1h2v2l2-1v1q3 2 2-3l-1-1-1 2q-1-5-5-2l-1-2zm-93 32-1-1zm-1-33q2 0 1-1h-2zm-9-67v1l1 1q1-1-1-2m48 138q3 2 2-1zm19-13c1 2 4-2 3 1v-2l-1-1zM287 276q0 3-1 1l-1 1h-1c1-1 1 2-1 1q-1 1 1 1h1v1h-1l-2-1q-2 1 1 2c-4-1-3 2-2 0l2 1-1 1-4-2q0 2 2 1l-1 2h-3l1 1-1 2c1 0-1-3 2-1q-1-1 1-2l1 1v-2l1 1h1l1 1-2-1-1 2h1-2l-2 1-1 1h-3l-1-1 2 2v1l-5 1 1 1-4-1c3 0 0-1 0 1 3 0 2 6 0 3l-1 1 1 1-3 1v-1q-1-1-2 1v-1c-3 1-3-2-4 1q2 0 1 1l1-1v2c-3 0 0 1 0 2l-1 1-2-1 2-1h-2 2l-2-4-1 3h1l-2 2c1 0 4 1 0 1l-1-1 1 2-1-1v1l1 1c-4 0 0-2-2-2l-1 1c0-2-2 1 0 1l-1 1c-1-1-4-1-1 1-4 1 0-2-2 1h-1l2 1-2 1-1-1c1 2 3 0 1 2h-1v-2h-1l-1 1 2 1-4 1-2 1-1-1h-1c0 3-2 0-2 3l3 1h-3l1 2-2-1h1l-1-2 1-1q-2 1-1 2l-2 1 1 1h-2l1 1c-5 0-2-2-2 2h-2 1q0-3-2-3l1 2-2 1q1-1-1-1l-1 1v-2l-1 2 1 1c1 1 2-2 3 0-2-1-2 2-4 1v1l-4-1v-1c-1 3 0-1-1-1h-2v-2l2 1q-2-3 4-3l-1 1 1 1 2-1q-2 0-2-3l-1 1v-1l-2 1-4-3v2h1l-5 5 1-2h-2l-1-1v2l1-1q-1 1 1 2l1 2 1-2c-1 2 2 0 1 2h1v-3h-1l2 1-1 2 3-1v1l-1 3h4l-2 1 2 1 2-2 1-2 1 2q2 0 2 1c0-3 0-1 2-2l1 1h-2l-1 1h3l1-1c1 2 1-1 2 0v-1c-6 0-1-2-1-3l-1 2 1 1c0-2 1 1 2-2v1l1 1c-1-3 0 0 2-3l2 1 1-2h-1 2l-1-1c2 2 3-1 2-1l-1-1v1q0-2-3-2l2-1 1 1v-1q1 3 2 2v-1q1 3 1 0v-2h4l-1-1 2 1c-2-2 2-2 1-4q1 1 1-1c1 2 2-1 2 0l-1 1 3-1h1v-4l2 1v1l1-2v2l3-3q-3 0 1-1-2-1-1-4 1 3 2 1v1h-1v2c0-2 5-2 4-4h1v-3l1 1 2-1v1l1-1s-4-2-2-2h1v1c5 2 6-4 4-2l1-2v2l2-1v-1h-2c2 1 8-1 8-4h-1v-2h2l-2-1 2-1 2 1h1l-1 1 3-2 2-1v-1h-1 2l2-2v-2l-2 2-3-2v1c0-1-1 2-2 0 2-2-3-3 1 0l1-2-1-1zm-72 41q2-1 3 1zm22 2v-2zm16-10 2-1v1zm8-6-1-1v-2zm22-14h-2q1 3-2 0l1 1h-2 1-1 2v-2zm9-10q1 1-1 1 0-2 1-1m-7 5 2-1zm3-3c1-1 1 3-1 2l-1-1z" style="fill:#fff;fill-rule:nonzero"/><path d="M209 322h2l-2-1c1-1-2-2 0 1m-21-122-1 2zm0 0v-1m52 77-2-1v2zm61-44-1 2h-2c1 1-2 1 0 3h1l-4 1 1 2 2-2 1 2v-2q2 0 1 1l2-2 1 2 2-1q1 2-1 1v1l1 1q0-2 1-1v-1h1l1-1h2q-3-2-3 1 0-3-3-1v-2 2h-1l-1-1 1-1 2 1-4-3h1zm-11-36q0 3 1 1" style="fill:#fff;fill-rule:nonzero"/><path d="M294 234v-2c1 2 5 4 3 1h1l-1-2q-1 2-4 1zm5-1h1v-1zm13 5c2 1 2-3 3-1l-1-2q-1 0-1 2h-2l-1 2q0-3-1-2l1 1c0 2-2 0-1 2q-2 0-1 1h2q0-2 2-1-2 2 1 3h-2l1 1q-2 0-2-2l-1 2h1l-1 2q-3 0-2 2v-2l2 1 2 1c0-3-1-1-1-2q2-1 1 1l1-2 4-2h-2l1-1-1-2h-1l1-1zm1 3 1 1zm0 0 1 2-1-1c1-1-2-1-1-4zm-14-17c-1 2 4 1 2 0zm-11-20-2 1h-1l-2-2 1 3h1v1-2l4 1v2l-2-1-1 2h4q-2-2 1-2l-2-2v-1q3 0 2 2l1-2 1 1v-3h-2l1 1q-4 1-3-1c-1 0 1-1-2-1l1 1zm0 0-2-1zm-22 39q-1 0-1-1l-1 1h1l-1 2q3 1 1-1h2zm4-15v-1c-3 1 0 1 0 1m-13 7-1 1h2zm-43 90q1 2 4-1c0 3 0 0-1 0l-2 1m-2-19h1zm0-1 3-1zm-18-114 1-2-2-1h1-2l1 1v1h-1v2l2-2zm16 84h2q0 2 1 1zm16 42c-2-1 2-1 1-2q-2 1-2-1v-1h1v-1c0 2-4-1-1 3h-1c1-2-4 0-3 0zm-2-5c0-2 3 0 1-3l2 2 1 1 1-2h3q-1 1 1 1l-2-2h4l-1-2h2c0 2 0-1 1-1l-1-1 3-1 1-1v1-1q2 0 1 1l2-1-2-1h1-5v1l-1-2-4 2 1 1-1 1h1v1l-1 2-1-3c1 4-2 2-4 3l1 1h-4l1 1q-4 2-1 2m7-4-1 1h-1z" style="fill:#fff;fill-rule:nonzero"/><path d="M244 302c0-2-3-1-1-2-2-2-2 2 1 2m-30-55q2 0 0 0m-12-59q0 3-2 2h-1c3 1 0-1-1 1l-1-2-1 1c2 0-3 1 0 2q-3-1-2 1l-1-1v1h-1q-4-3-1 0v1c0 1-4-5 0-2q-1-5 3-2l-1-2c3 2-3-1 1-3v2l2 1h2-1 1v-1h-2 1l-1-2h1-1l-2-1 1-1-2 1 1 1-1-1-1 2h-1l-2-2h-3l1 3 2 1 1 2-1 1 1-1-1-1q0 4-2-1v1-1h-2l1 1v1-1l2 1v1l-1-1q3 3-1 0l1 2c-1-2 2 0 0-1l1 1v2h1l-2 1-1-2-1 1-1 2-1-2v1l1 1h-3l2 1h1l1 1h-1c2 0 0 2 3 0l1 2h4q0-2 1-1-3 0-3-2v-1c0-1 1 3 3 1 0 3 0 0 2 1 0 0 4 0 1 1-1-2-3 0 2 1l-2-3c2 1 0-2-2 0v-1h-2 2l-1-2h-1 2l3 2-1-1h1v-1q-2 1-2-2c1 2 1-2 2-1l-1 2 1-1c-2 0 1-1 0 0l2 1-1-1h1v1l2 1 1-1-2-2h2l1-1h-2l3-1c1 2 4 1 0 0-1-2-1 1-2-1m-7-1-1-2q3 2 1 2m-7-1-1-1h1zm0 0q2 0 0 0m-2 10q-1 2 0 0m3 1-1-1zm-1 0v-1zm0 0q0 2 0 0m2 1c-5-3-1-1 0 0q0-1 0 0m0-2q3 0 0 1m68 85 1-2c-2 0 0-2-2-1v1l-1-1h2l-2-1h2l-1-2h-6l1 2h1v-2l2 1-1 1q-2 1 1 1l-2-1v2h-1l-2-1 1 1-2 1-1-1h1l-1-1c2 0 0-4 2-3v-1c1 2-2 0-1 2l-3-1q3 1 2-1h-1l-2 2-1 1 2 1v-1l3 3h-1l-2-1h1v1h-2l-1 2v-2h-1q0 3-2 1l-1-1v1h-2l1 2h-1c-2 6 2 2 3 3v-1l1 1 1-1c-1 1-3-2-4-1l2-1h-1 2v1h1c-1-3 2-1 0-1v-1l1-1 1 2c-1 0 1 4 1 1h2l2 3-2-2v-1c2-1-2-3 2-1v2q3-1 0-1l1-1v-1h1v-2h1l3 1q-1 0 0 0c1 1 1-2 2 0m-50-80-2-2v2l-1-1q2 2 3 1m2 15 1-1q-2 0-1 1m12 52c2-2-1-2 1-1zm0 0h1m-3-14q0-3-1-1h1l-2-1zm-7-42h-2l2 1h-2l-1 1c1 1 5 0 4-1zm32 129v1c0-1 0 2-3 1v2l-1-1 1 2h-1v-1l-2 1 1 1c-1 2-1-3-2-1l-1 2h2-2l1 2h-1l-1-1v2l5-2h-2l1-1h1-1 2l-1-1c3 3 10-4 6-3v-2l3 1c1-3-3-1-4-3m-3 5 1-1 1 1z" style="fill:#fff;fill-rule:nonzero"/><path d="m254 340-1 1v1-2l-3-3v3l1 1v2h-2l1-1v1q1-1-1-2 2-1 0 0c0 5 1 2 4 1z" style="fill:#fff;fill-rule:nonzero"/><path d="M264 332q-2 1-2-1l-1 1v-1c0 1-3 2-1 3l-1 1h-1l-1-1h-1v1h3l-2 1 2 1h-1l-1-1-1-1c-4 1-1 1-3 4v-1h-1c1 1-2-1-1 1q2-1 1 1h2c-1-1 3 0 0-2q3 0 2 1 2 1 2-1-4 0 0-1h-1 2l4-2v-3l1 2z" style="fill:#fff;fill-rule:nonzero"/><path d="M256 332h2v2l1-2v2-2l1-1v-1h-2l1 2c-1-2-3 0-2-2q-3 0 0 2zm-21 19v-3l-2 1zm-24-172c-3 2-6 0-7 3l-1-1v1c0 4 1-3 4 0h-2v1l1-1h1l1 1-1-2c3 0 1 3 1 0l4-1zm20-18-1-2c2 1-1-4 3 0h-1q3 3 0-1h1l1 1v-1 1l1-2h-4 2l-1-1 1-1 2 1-1-1h1c0-1-3 0-1-1l1-1h-1v-2l-3 2c2 0 3 4 0 1v2q-2-1-2 1h2l-2 1q-2 0-1-1c-3 1 5 2 0 3 0-2-2 1-1-1-4 0 1 0 4 2M229 192l1-1c-5-1-3 2-1 1m14 58c3 4 1 0 1-1-1 1-4-1-2 2l-1 1h3l-1 1c4-1-1-2 0-3m8-65 2 1v-3 1l1-1q2 3 2 1v-3h-1v2l-3-1c1 5-4 1-3 3l2 1zm9 157-1 2c1-1 3 2 1-2m16-85h-2l2 2h-4l1 2 1-1h2v-1c1 1 2-2 3 0 1-2 2 0 2-2l2 2c1-3 2 0-1 0h2q-1 2 0 0 1-3 4-2v-1h-2l2-1 1 1 1-2h-1l2-2v2c0-1 3-1 1-2l3-1-3-2-1-1v-1l2-1h2l1 1-1-2v1h-2l2-3-1 2h5v-1l1-1v2c0-2 0 1 1 0l-1-2v-2h-1l1 1c-2-1-3 3-2-1l-1-1q-1 2-1-1h-2c2 1-2 0 0 1v1h-4q-1 2 1 3l-4 1 2 2h1l1 1v1h1v1h-4v-1l2-1h-3v-2q0 3-2 1l1 1h-3v1l-3 2v-1l-1 1q0-2-1-1l1 1q-3 0-1 1h-2q2 1 1 2h1l-1 1zm17-16 1 1v1l-2-1zm-3 1 2 1c2 0-2 1-2-1m-11 13-1-2c1-2 1 1 2 0l1 2 1-1h-1v-1q2 1 6-2 1 2-1 1 0 2-1 2c-1 2-2 0-2 2l-1-1q-2 1-1-1zm0 0v1l-2 2-1-1z" style="fill:#fff;fill-rule:nonzero"/><path d="M293 249h5l-1-1-1 1v-1h-1l1 1q-3 0-2-1h1l-2-1zm-32 93q0 2 2 1zm12-2v-1l1-2c-1 0-3-3-2 0l-2 2 4 1m-11-11-2 1q2 1 2-1m6-17-3-1v2l2-1-3 2v1q-1-3-2-2h-2v1-1q-1 1 1 2c0-1 3 1 1-1h1l2 1q0 2 2 1l2-1v1c0-1 2-5 3-4v-1l1 1-1-2h-1l-1-1v1c1 3-1 0-1 1 2 1-1 0-1 1M269 279l1-2q-2 1-1 2m3 4q1-1-1-3c2 2-1 2 0 3z" style="fill:#fff;fill-rule:nonzero"/><path d="M273 282v-2l-1 1zm-31-70v2l2-1zm1-9q2 0 1 1h1v-1 1q-2-4-2-1m16 75-1 1q2 0 1-1m0 0-1 1 2-1c-1 0-1-3 1-1q-2 0-1 1l1-1v-1h1q-3-3-1-3h4c-3-2 2-4-5-3l3 1q-3 0-3 2h-2l1 1h1v1h-2v-1l-1 1 1 2m5 18q-1 2 1 2v-1c0 2-1-1-1-1M256 193h-1l-2 2-1-2-1 3q1-3 2 0l2-1-1-1zm35 120c-1 1-1-3-3-2l2 1-2 1v2h2v-3 2h1zm-48-156q2 0 1-2l1-1c-3 1-1-2-3-1v-1zm44 143v-2zm0 0c-1-2 1 0 1-2l-2-1c0 2-1-1-2 1l1 2-3-1v1l-2-2 1 1h-2v1c0-2-2 1-1 0l2 2 3-1v1l1-1v2l-2-1h-1c0 2 6 1 3 0h2l-2-1q1-1 4 1zm-23-79q-2-2-1 1h-1l-2-1 1 2h1l1 1h-1l3-1h-1zm0 0h1l-1 1h2v-2h-1 1v-1h1v-1h-3zm-9-33-2 1v-1l2 2zm22 90c0 1-3 1-1 2-1-2 3-1 1-2" style="fill:#fff;fill-rule:nonzero"/><path d="m243 152 1 2 2-1q-2 0-1-1zM259 187l-1 1v-1l-1 2-1-1q1 1-1 1 2 1 1 2l1 1c0-1 3 2 1-1h2v-3c-1 1-1-2-1-1m20 93v-1l-1-1v1zm-2-9 2 1-1-1h1l2 1v-2h-2l1-1-1-1-1 1 1 1-1-1-2 1q1-1 1 1m-28-124 1 1-3-1 1 2-1 1c2 1 2-2 3 0v1l1-3h1l1 2 2-3h-2l-2-2zm35 147q2 2 3-1l-2 1zm-27-113c-1-1 3 0 2-1h-2zm11 39 1-2zm0 0c4 0 1-3-1-1 0-1-3 0 0 1zm-20-77-1 1 2 1zm0 0-1-1q3 1 1-2h-2q-1 3 2 2m30 117v2l3-1v-2zm3 10h2c-1-1 1 2 1 0l-1-1h4l-1-1h-3v-1l-1 1c4 2-3-1-3 1zm-14-61q-1 0 0 0m0 0q-1-3 0 0" style="fill:#fff;fill-rule:nonzero"/><path d="M268 185c2 2-1 1-1 0zm0 0h1l1-1-1-1h-1c1 0-2 0 0-1v1l2 1-1-2 3 1-4-4q0 2-3 2v1l1 1-1 1c1-2-1 0-1-2l-1 1 2 1v4-2l-1 1v-1c-1-1-3-4-2-1 2 0-1 2-1 2v1h-1v2h1q-2-2 1-2l2 2v1l-2-1-1 1 2 2v-1l-1-1 2 2 1-1h-1c0-3 2 0 2-1v-2l2 1 1-1c-1-1 1-3-2-4" style="fill:#fff;fill-rule:nonzero"/><path d="M272 185h-1v2c-1-2 1 0 1-2m3-2h3v-2l1 1v-1h1l-1-1h-1c3 0-1 0 0-2 0 1-1-2-1 0v1c-1-2-1 5-3 2l-1 1 2 2zm13 113 1-1zm0 0v3h-1 2c3-4 0-2-1-3m-4-27-3 1zm-13-48 1-2q-4 1-1 2m-11-43 1 2h-1 2zM292 288c0 2-2-1-1 2h1l-1-1v3h1c0-3 1 0 1 0 0-1-2-2 2-2-1-2-1 1-3-2m-1 9q2 2-1 3h4zm-13-75-3 1h2l-1 1 3-1zm14 41c-1 1-3-2-1 0h-1v-2l-2-1v1h-1l1 1-1 2h-2l1 1 3-2 1 1-2 1v3l3-2v-2l-1 1 3-1 1-2q-3-1-2 1m-36-120-2-1h-1c1 4 1 0 3 1m15 57h2zm0 0v2h-1c2 0 5 0 1-2m3 9h2l-1-2h1l-1-1c-2-1 1 4-2 1 2 2-2 1 1 2M294 286l-1 1h-1 2v1h-1 1l1-2zm-38-146-2-3v3zm30 105v-1h-1v1zm-4-31v-2zm1-4h-4v1h-2l-1-1c1 1-2 1 0 2h1l1 1 1-1 1 1c-3 0 0 3 1 1-5 2 4-5 3-1v-2q-2 1-1-1m-4 1 1 1zm6-2c-2-2-4 1-4 1 1 0 5-2 4 0z" style="fill:#fff;fill-rule:nonzero"/><path d="M283 205c0 3-2 0-2 1l1 1-1 1 1 1 1-2zm-27-70-1 2v-2l-1 1c1 4 3 0 2-1m18 67v2l2-3zm0-12q-2 0-1 2l-1 3 2-2h2c-1-1-5-1-2-2m1 12 2 1h-1v2h2l2-2-1-1-1 1c-1-2-2 1-2-2zm21 54v1s-1-7-1-1l-1-1s3 2 0 2l-1-1v1l-2-1v2l3 3 2-2q-2 0-1-1c2 2 1-3 1 0h2v-2z" style="fill:#fff;fill-rule:nonzero"/><path d="m277 202 1-1zm0 0c1 0-2 2 0 1m3 7q1-2-1-2zm-3-14-1 1c1 2 2-1 1-1m4 3v1l-2 1-1 2 3-1 1-1h-2 4l2-1zm17 77h-3zm-27-105 2-1h-3zm8 21h-3zm0 0-1 2c1-1 2 2 3-2 0 2 1-1 2 0zm0 1-1 2q-1-2 1-2" style="fill:#fff;fill-rule:nonzero"/><path d="M290 182q-1 1-1-1h-2v1l-3 1h2v2l-2-1 1 1-2 1 1-1-1-1h-1c-1-2-5 0-4 1l3 2-1-1v2h4-1l-1 2h-2l-1-2h1c-3 0 1 2-1 2l-2 1h3l-1-1c2 0-2 3 3 1v-1l1-1 1 2 1-3h1v-2l1 2v-1l-1-2q4 2 2-1l1 1v-1l-1-1v-1 1zm-6 5-2 1zm1 0v-2zm-27-63c4 4 1-3-1 0l1 1m35 115 2-2h-2l-1 1zm12 7h-2l1 1h-1q2 2-3 2-2 2 1 1 2 2-1 2l1-1s-4 0-3 2c-3 1 2-2-1-3l-2-1 2 2v2h-1v2h1v-1l1 1h2c2-4-1 0-3-2q3 1 4-1l1 1q-1-1 2-2l-1-1h1v-1l1 2v-3l2 2c0-2 4-2 2-3 0 0-4 4-4-1m-19-40q0 2 0 0m0 0v1h1zm-17-70q-1 1-1-1l-1 1-2 1q3 1 4-1m26 100-1-1 1-1q-2-1-2 2zm-18-66v-1c0 1-3 2 0 1m-1-8 1-2-1 1zm10 27 1 1c-2-1 1-1 1-2zm-6-25 3-2-3 1zm23 78h-2z" style="fill:#fff;fill-rule:nonzero"/><path d="m281 165 2 2v-2c0 2-3-1-2 0m22 80h2v-2l1 2v-4l-1 2-1 1q-1-1 1-2-2 2-1 3zm-5-32-1 1zm0 0h-1zm-8-32 1 2q1 1 1-1v-1z" style="fill:#fff;fill-rule:nonzero"/><path d="M295 180v-2h-3l1 1-3 1q2-1 2 1l2 1zm0 0-2-1h1zm0 0 2-1zm15 74q2 1 1-2h-1zm-4-21v-3l-2 3zm0 0q0-1 0 0m7 27-1-1zm-7-39h-2v1h3q-2 0-1-1m-5-51 2 1c-1 2-2-1-2 1l-1-1c3 2-3 0 0 2l-3 2h2q-3 0 0 2l-2 1v-4q-1 2-2 1l-1 1h2l1 2v1-1l2-1-1 1h2l1-2q1 5 1 0l1-1-3 1v-3h2v-3h1zm2 30-3 1zm5 21q1 0 1 1v-1zm-2-21c-4 3-2 0 1 2zm0-11q-2-1-2 1zm1 1h-2v3h2c1-1-2-1 0-2l1 1c0-1-3-1-1-2m1-1c0 1-3-1 0 1zm6 27-1 1 2-1zm-5-31h2q-1-3-2-1l-2 1 1 1h3zm40 77-1 1v-2c-3 1 0 1-1 2l-1-2-1 2q2-1 2 1-1-1-2 1c-1 0-5-1-3 2h-2l2 1h-2l3 1 1-2 1 1v-1h2l2-3h-2zm-146 66 2 1c-1 0 0-4-2-1m52-108q0 2 1 1zm1 0q1 1 2-1zm32 94h-2l-1 1h-3l1 1h-2q1 1-1 2l1 1 2-1v-1q1 1 1-1 3 2 4-2m-15-100-2-3h1l-1-1-2 2c1 1 5 0 1 1 0-3-3 0 3 1m-148 4q1-2 2-1l-1-1-1 1zm-11-37-1-1zm0 0q0-1 0 0m13 26 3-2-3-1 1 2h-1zm37 91q-3-1 0 1zm-31-84h2zm23 52v-1l-1-1zm-28-70h1zm48 104-1 1zm-32-84-1-2q-1 2 1 2m-8-20h2zm-3-8 1-2-1 1zm22 46-1-1c-2 0 2 3 1 1m-19-48-1 1q2 1 1-1m14 29q-2-1-1 1zm0 0v-1m18 42v1q2 3 1 0m-5-7h2zm-9-39h-1zm0 0q-1-1 0 0m2 2q3-1 0-1zm-12-32q-1-1-1 1zm20 54q1 0 1-1h-1zm14 18q-1-1 1-1l-2-2v1zm-27-66 1 1zm31 67h-2zm-21-48 1 2zm-14-31h2zm22 46 2 1zm-25-59v-2h-2zm23 45h-2zm13 30-1-1v1zm-22-55v2zm-7-23v2l1-1zm67 155-2 1zm-19-47-1-1zm-25-64c2 0-1-2 0-1m26 54 1-1q-1-1-1 1m-46-104 2 1c0-1-3-4-2-1m31 39-1 1v1q1-1 2 1l-1-2zm-27-50q2 2 0 0m59 109c-2 0 1 1 0 0m-49-99-1-2zm14 18-2-1 1 1zm18 32 2-1zm-18-39c3 4 1 1 1 0m14 27h2zm-25-41v-2zm29 47q1 1 1-1zm0 0q2 0 0 0m16 33v-1h-1zm-41-79 1 2zm0 0 1 2v-3zm-6-9q-3 1 0 1zm61 115q0-2-1-1zm-35-77c-3-1 0 0-1 1zM174 145l1 2 1-2zm1-3v-1l-1 1zm8 12v1zm11 16 2 1zm9 4v-2zm29 45-1-2zm-110-10h2l-4-2zm0 0-1-1c3 4 1 1-1 1l-2-1 1 1c-1 2-1-1-2-1h-1l3 4 1-1 1 1 2-3" style="fill:#fff;fill-rule:nonzero"/><path d="m122 208 2 1-1-2 2 2q-1-1 1-1v-1l-1 1v-2l2-1h-1v1h-3v-1 1l1 1h-2zm5-8 1-2-2-1h2v-2l-2-1h1v-1l-2-2 1-1 2 1-1-3-4-2v1h1q1-1 1 1h-1v1q-2 0 1 2v1h-1 1q-1 1-3-1v1l1 1c-2 1 1 1 1 2h2l-1-1q3 1 0 1h-1l1 2-1-2-1 1 1 1q-3 0 3 3m11 46q0-1 0 0m15-2h3l-1-2 2 1v-1h1l1 2-1-1q2-1 2 1l-1-1h3v1c-2 0 4 2 2-1v-1h1l1 1c-2-1 0-3-2-2l1-2h-2v-1l-1 1v1l-1-1-1 2h2-2l1 1q-4-1-2-2l-1 1v1l-3-1-1-1c1 1-2 1 0 3h-1zm10-3q-1-1 0 0m0-2q-1 1 0 0m-1 1v1zm-35-21c1 2-2-1-2 1l-2-2 1-1c1-1 1 2 2 1l-2-2c2 2 2-3-1 0v1l1-1q0 3-2 1l1 2c2 2 1-1-1 0l1 1h2l-1 1 1-1q3 2 3-1 2 2 0 0m43 48v1zm-4 12q0 2 0 0m0 0q-3-2 0 1m-2 0-1-2h-1zm-29-42h-2l-1-2h1l-1-1q0-2-1-1h1-1v2q-2 0-1 1h1c-1 0 1 5 4 3zm-2-10 2 1v-1 1q-2-3-2 0l-1-1c2 2-2 2 0 1l-3-1-2 1c1 2 8 3 6 0m-5 0h1zm11-3v-2 1l-1-1h-1c1 1-2 0-1 1q2 2 0 0l-2 1 1 1h2c0-2 2 0 1-2zm-19-20-2-2z" style="fill:#fff;fill-rule:nonzero"/><path d="M128 215h2c-1-5 3 2 0-2h1l-1-1q2 1 1-1h-2l-1-1v1l1 1h-2c0 2-5-1-3 2v-1l2 1zm-6-10h-1zm-1-24h4l-1-1c2 0-1-1 1-1h1q1-1-2-1l-1-1 3 1-3-3c2 2-2 0 0 2-2 0 0 1-2 2l-2-1v2l-1-1c1 2-4-1-2 2l-1 1q3 1-1 1 3 1 2-1l2 1 4-1-1 1zm1 0q-1 0 0 0m0-4 1 2-1 1zm0 3-1-1zm36 111h-1v1l1 1zm-10-63h-1v1h-1l-1-2h1l-2-1v2h-1q1 2-1 1h1l-1-1h-1c2 3 0 0-1 1l2 2-2-1 2 2h-1l-1-1h-1l1 1h-2l2 2-3-1v2l1 1v-1h1v2q-1-3-3-2v-1h1c-5-4-1-1-2 1l2 1c-3 0 0 1 0 0v-1l1 2v1l-1-1-1 1 2 1 2-1-1-1 1 1 1-1-1-2 2 1-2-2v-2q5 2 8-1l-2-1 1-1v2c3 1-1-2 0-2l2 1zm-3 29q-2 0-1 1h1zm5 2q2 0 0 0h-1l1-1-1-1-1 1v-1h-1c3 4 1 1-1 1v1l1-1q-2-1-1 2l1-1q2 3 3 0m3 7 2-1-2-1h-1zm35-4 1-1-1-2v1q0 2-1 1zm-34-7-2-1 1 2v1l2 1zm-26-38 2 1zm0 0q2 0 0 0m-4-13q1 1 1-1zm36 86h-1l-1-2-1 1 1 2zm-24-65h-1c2 1-1-4 1-3l-2-2 1 1h-2 1c-2-2-1 1-2 1v1l1 1q2 1 1-1zm30 65h-2v-1c1 2 0-1 2 1l-1-3 1 2zm0 0 3-1-1-1h1q0 3 1 2c1 2-1-1 3-1v-2l-1 1-1-1c2-1-1 0 0-1q-3 0-2 1l2 1c-2-1 0 2-2 0q2-1 0 0l-4-1v-1l-1 3v-1l-1-2v1h1l-2 1v1c-1 1-1-2-2-1v2h2v-1l1 1q1 1-1 1l2 1 2-1z" style="fill:#fff;fill-rule:nonzero"/><path d="M147 253v1l1 1v-1c1-1 3 3 0 0l2-1 1-1c-1 2 2 0 3 2l-1-1 2 1v1c0-2 3-1 1-3l-1 1h-1v-1l4 1q2-3-1-3l-1-1v-1l1 1-1-1 3 1-1-1c1 1 1-2 2 0v1l1-1c1 3 1 0 2 1h-1l-1-1q2 0 1-1l-2-1h-1l-1-2v-1c-1 1 2 4 0 2l-2 1c1 3 0 0-1 1v2-2l-2-1 1 1h-1 1c-3-3-1 2-1 0l1 1h-1c1 3-3-5-1 0h-2q1 2-2 1h-1l1 2h1-1l-1 1zm5-4 1 1c0-2 2 1 1-1h2q1 3-2 1 3 3 0 1v1l-1-1zm-22-40v1h2zm0 0c4 1 1 0 2-2l-2-1q-3 2-1 3m21 46 1-1zm-9-32-1-1zm5 3-2-4h1l-1-3q1 1 1-1h-1l-2 2h-1v1l-2-2v3-2q-1 3-2 1l1 2c0-1 3 2 1-1l2 1h2-1q2-1 1-2l1 2zM157 256v2zm-25-59h1zm-8-22 2-1v1q2-1-2-3zm0 0h-1z" style="fill:#fff;fill-rule:nonzero"/><path d="m129 177 1-1q-2 1-2-2l-2-1h-1c2 1 0-2 0 0zM133 186l-2 2h3-1zm-6-9-1 1q1 1 1-1m42 76 1-1-1-1zm20-16q1-1 2 1l-1-2zm-6 12-1-1zm26-62-1-1q0 3 1 1m16 32-1 1h2m-4-9c-1 2 3 2 2 0zm-31 6-1-1h-1zm-34 7v-2l-1 1h-1l1-1-1-1v1h-3l2 1-2 1-1-1v1h-1v2l1 1v1l-1-1v-1 2h-1l1 1-2-1q0 2 2 2h3v1l1 1-1 1 1-1q-2-2 1-2-3-6 0-3 0-3 2-3 0 2 0 0M150 226h-3zm11 34h1l-1-2zm-20-53-1-1zm3 8 1 1q0-2-1-1m-5-16c-3-2 0 0 0 1zm0-3-1-1zm0 0c0-1 3 1 0 1q3 1 1-1zm0 0 2 2 1-1zm0 0 1-1-2-1h2l-2-2-2 1q3 1 2 2m9 11 2 1q-2 0-1-1l-2-1h-1v1c-2 1-2-2-2-1v1l-2-2 1 1-1 1v1l3 2-2-2h2l2 1-1-1q2 1 2-1m22 66q2 0 0 0m-1-3h1zm-30-79h-1v1l-1-1v1l1 1 3-2c-1-3 1 2 1-1l-1-1h-2q1 4-1 1zm1 2v1l4 3-2-3h1zm31 78q-3 1 0 1zm-7-20h-3z" style="fill:#fff;fill-rule:nonzero"/><path d="m135 187 1 2h1c0-2-1 0-2-2m-1-4c1 3 3-1 1-1q1 3-1 1h1zm10 20-2-2zm-15-33 1-1v-1h-1zm32 76c0-1 3 2-1-2zm-11-27 1 2 2 1 1-1c-2 2-1-4-4-2m-7-22v2q-1-2 1-1m10 15q3 2-2-3v1h-1l1 2h-3c0-1 2 3 1 0 2 1 5 5 1 0zm0 0-1 1zm0 0 2 1zm-4-9c2 0-2 1-2-1h2zm0 0-3-3q-1 3-2 2l1 1h1l1 1h1l1 2v-2l1 1zm-6-12h-1l1 2-1-2h-1c2 6 4 2 2 0m-2-2q0-2-1-1v-2h-1v1h1c-1 1 2 3 1 2m12 29 1 1h2v-1h-1 2v-2l-2 2zM158 148q0 2 0 0m0 0c-2 0 1 0 1 1v-2l-1-1v1l-3-1 1 1-2-1c-2 0 2 3 4 3m-11 32q0 2-1 1v1c3 2 1-1 0 0l2 1-2 1 2 2h2l-1-2 1-1zm11 13c1 3-2 0-1 0v-2l-1 1c1 2-2 0-1 1l1 1h-1v-1l-2 1h-1l1 2v1c3 4 0-1 1-1l1 2h1l2-2h-1c2-2 6 2 1-3m-4 4h2zm-1-2 2-1q1 2 2 1c2 3-3 0-4 0m-10-19 2 2c1 2-2-1 0 1h-1 2l-1-2 1 1v-2l-1 1c1-2-2-2 0-1l-1-1h1c0-2 0 1-1-1h-1l-1-1 1 2zm-4-8 2 1c-1-2 4 1 2-1l-2-1c-1 0 2 2-2 1m3 0 1-1zm10 22h-1zm0 0q-1 2 0 0m10 17q-4-2-1 1zm0 1-1 1 1 1 1-1zm-18-41-2-1c-2-3 1 2 2 1" style="fill:#fff;fill-rule:nonzero"/><path d="m142 166-1-1 2 1h1l1 1q0-1 1-1v-2l1-1-1-1v-1h-1c1 3-2 1-1 3l-2-1zm0 0-1-1v1zm2-2 1 1h-2zm1-5 3 3-1-2h2l-1-1h2l-1-2q-3-1-3 1zm4 0-1-1z" style="fill:#fff;fill-rule:nonzero"/><path d="m150 159 2 2c-3-2 1-2-1-3 2 1 1-2 3 1l-1-3 1 1c-1-2 2 0 1 0v-2 1l-1-2 1 1q1-1 2 1l-1-2 1 2c2-2-4-3-4-4v1h1v1h-2l2 1q-2 0-1 1l-2-1 1 2-1-1v-1q-2 2-1 3z" style="fill:#fff;fill-rule:nonzero"/><path d="M153 158q-1 2 1 2zm-5 0v-2zm-2 19h2zm0 0 1 2q0-1 0 0l1-1s-3-3-3-1m6 4h1q0-2-1-2zm0 0q0-2-2-1v1zm0 0v1c-2 0 1 0 0 1q4 0 1-2m-1 0c0-1 2 2 1 0 1 0 2 3-1 0" style="fill:#fff;fill-rule:nonzero"/><path d="M156 183c1 3 0-1-2-1l-1-2v2l1 2h2zm-2 2-1-2q0 3-1 2z" style="fill:#fff;fill-rule:nonzero"/><path d="m152 185 1-1q-3 0-1 1m3 5c2-1-1-6 0-4v-1c-2-1 0 2-1 1l1 1-1 1h1zm13 14-1 1h-1l-1-1h-2l1 1h-2v-1h-3l1 1q1-1 1 1c0-2 0 1-2-1l2 2h-1v1l1-1q3 2 1-1l1-1v3h2v-2l1-1 1 1h-1 1zm12 47c1-1-2-1 0-1l1 1-1-2-1 1zm12 29v-1zm-48-121-1-1h-1zm6 15 2 3h1l-1-2zm16 20v-1l1 2q2-1 1-2l2 2c2-1-3-3-2-1l-2-1 2-1h-2l-1-2-1 1v1h-5v2l2 1c-2 0 2 1 1-1l-1-1h1l2 1h-2l1 2 1 1-1-2c1 2 0-1 2 0l-2-2zm-10-14q-3 1-2-1l-1-1 1 3h1v1h1l-1-2z" style="fill:#fff;fill-rule:nonzero"/><path d="M154 177v2l2 2c0-3-1-1-1-2zq0 2 0 0m4 10q-3-3-1 0zm6 10-2-1v1zm-5-12q-2-4-2-1c0-2 2 2 2 1m8 18-1-2zl-2-1zm-14-31q3 1-1-2zm0 0c-3-1 2 4 0 1" style="fill:#fff;fill-rule:nonzero"/><path d="m157 181 1-2h-1l-2-2v1-1zm13 26-2-1 1 1zm0 0v-1q-1 1 1 2h1q0-2-1-1" style="fill:#fff;fill-rule:nonzero"/><path d="M158 181v1zm0 0c1 2 2-1-1-1m0-44 1 1zm12 61 3 2v-2c-2 0 0 1-3-2h1-2v1l-1-2-1 1 3 1zm0 0h-2l-1-1v-1l-1 1-1-1 3 3zm-13-23c-1 1 2 3 1 1z" style="fill:#fff;fill-rule:nonzero"/><path d="M158 176v-2h-2v1zm15 24v1l1 3q1-2-1-2h2l-1-1 2 1h-1c4 2 0-2-2-2m-2 2h-1l-1-3-2 1c3 0 2 4 3 4-1-2 2-1 1-2m-6-22-1-1h-1v-1h-1 1l-1 1 2 1q-1-1 0 0h-1l-3-2v1h1c-4 0 1-2-4-2l1 1c2 0 0 2 2 2-2-4 7 4 2 1l-1 1 1 1h1l-1-1h3z" style="fill:#fff;fill-rule:nonzero"/><path d="M160 181h3zm0 0-1 1m2-11 1 2h-1l1 1q-2-1-2 1h-1v1c1 1-1-2 1 0 1 1-1 1 2 1l1 1v-2c0 2 0-1 1 1l1-1h-1l-1-1c5 1 3 2 3 2h-2l2 1h-1l1 2h1l-1-1h1l1-1h-1c2 0-1-3 2 1l-1-2c3 2-1-2-2-1 0-2-1 0-2-2l-1 1-1-1q0-2 4 1l-1-2 1 1c3 0 0 2 2 1l1 1v1-1l-2-3 2 1 1-1 1 2h1l-1 2q3 0 3-3l-2-2 1 2-1 1-2-3q-1-1-1 1v-1l-1 1-2-2 1 1v-1c1 3-1 1-1 3v-2h-2q-1 2-3-1" style="fill:#fff;fill-rule:nonzero"/><path d="M174 174v-1l2 1v-2l2 1v-1l-1-2h-1l1 2-2-2c1 5-6 0-1 4m-21-8c-1-1-5-4-1 0m9 19h1l-2-2zm-14-32-1-1h-1zm25 50h1m-15-37h-3l1 1c0-2 3 2 2 0zm11 23c-3-5 1 1-2-2h-1l2 2zm-13-25 2 1h1l-1-1zm56 95-2-2zm-40-65 1 1v1zm0 0q0 2 0 0m1 0v2h2c-1-2-2 0-2-2m-1-4h1q-3-2-1 1zm0 0 1 1h1zm-18-32c2 2 1-1 0 0m21 42q2-1 2 1c6-3 1-2-1-4q0 3-1 2m-2-12-1-1zm0 0h1z" style="fill:#fff;fill-rule:nonzero"/><path d="m171 189-2-3q2 1 2-1l-1 1h2v-3h-1 1l-1-1c1 2-2-1-1 1 0-1 3 2 0 1v2h-2c3 3 0 3 3 3m-16-33 1 2c1 2 0-2 1-1zm4 6 2 1zm7 9c-2 0 1 2 1 1q-2 0-1-1m9 19 2 1-1-3h-1zM165 163v1l-1-1 1 2v1c-1 0-2-3-1 0l4 1-2-1v-1q3 1 1-2h-1c2 0 0-3 0 1zm-3-10h-1l-1 2-1-1h-2l-1-1v2h1l1 1-1-1h3l2 1h-1c-3-2 1 2 0 2v-2h1l1 1-1-2c2 3 0-1 0-1zm9 27h2l-1-2q1 2-1 2m-13-29-1-1c1 2 3 0 3 2h1zm43 90-1-1h-1c1 0-1 1 2 1m-17-55h-2c3 0-3-3 0 0l-1-1v-2l3 2-2-3v1l-2-1c0-1 3 2-1 0h-2q0 2-1 1c1 2 1-1 2 1h-1v3l-2-1 2 3-1-2h2c2 2 3-1 4 1v-1l1 2c-1-2 3 1 1-3m-6-1q5 1 0 1m2 0-1-1h2zm15 38c0 2 2 0 1 2v-2m-21-45-1-1h-1l1 2zm-11-19 1 1zm0 0h-1m18 32v-1h-1zm1 0v1q3-1 0-1m-12-24-1-2zc0-2 2 1 2 1-2-4 1 0 2 0v-1l-1-1h2l3 1h1c-1 1-2-2-3-1q0-2-1-1 0-3 1-1l1 1h3l-1-2h1l2 2v-1 1l2 1c-1-2 2 1 2 1v-1c-1 1-1-3 1-1l-4-3 1 2v1l-2-1h1v-1l-1 1-1-1c2 0-2-2 0-3h-1v1l-2-1h1l1-1 1 1h2l1-1h3-1l-1-1c3 1-2-2-4-1l1 1q-3-3-1 0l-4-1-1-1v1s3 2-1 0l1 1 2 1q-2-1-1 1h-1l2 1-1 1-2-1 2 2h-5c0 2 1 0 3 2h-3z" style="fill:#fff;fill-rule:nonzero"/><path d="m186 160 1 1v-1zm3-10-1-1h-1c1 2-1 2 2 2zM169 164l-1-2zm-9-17q-1-1 0 0m3 1-3-1 1 2h2zm0 0 1-1m31 57h-2l-1 1-1-1v2l-2-2 1 2 2 1h-1 2v-2l1 1v1h1v-2h-1zm-31-52 1 2v-1zm13 24 1 1v-1zm36 81c0-2 2 0 1-2zm-44-98v1zm-9-14 1 2 1-1z" style="fill:#fff;fill-rule:nonzero"/><path d="M160 145c-2-3 1 2 0 0h1zm64 134q0 2 1 1zm-52-116 2 1zm8 17h2zm1-5q0 2-1 1v1l-1-1q1 1-1 1 3 1 2 2h1q-2 0-1 1c0-2 4 1 1-1h2zm34 85q-1-1 1-1 0-2 1-1l-1-3q3 0 1-1l-1 1-1-1 1 1q-1 0-1 1zm-47-104h1zm-1-6-1-1h-1 1l1 2q0 1-1 1v1h1q0 3 2 2l-1-1v-1 1l2 1c-1-1 2 0 1-1q-1 1-2-1h-1v-1c-3-1 0 0 0 0zm0 0 2 2zm0 0c1 0-1-3 0 0m-4-9c-1 0 0 3-1 1v1-1l1 1-2-1q0 2 1 1l-1 2h3l-1-1h1l1 1 1-1zm15 29h1zm17 33v1zm0 0 2 1q-1-3-3-1M160 140h1zm0 0-1-1 1 2m4 5 3 1-2-1zm23 25c2 2-3 0-1 2v1l-1-1h-1l2 1 1 2v1l-1-1c-3-1 1 1 0-1-1 0-4-3-1 0q-1 2-2 1l1 1h-1v2-1l2-1 2 2-2-1v1c-3 0 2 3 2 2h1q-1 0-1-1c0-2 2 1 2 0l-1-2 2 1-2-4c2 2-1 1-1 0h1l1 1 1-1-2-1c1 0-2-1 0-1l4 2z" style="fill:#fff;fill-rule:nonzero"/><path d="M190 175c1 1-2 0 1 2-1-2 3 0-1-2m4-4-1-1zm0 0c-1-1 1 4-2 1l2 4c0-2 4 0 2-2h1l-1-1h1-1v-1zm5 35q-1-1 0 0m0 0q0-1 0 0m-19-36q-3-3-1 0m-7-25c-1-1-4-2-1 1h-1l1 1-1-1v2l2 1v2l-2-2v2-1 1q4 0 2-1l1-2 2 1-2-3zm0 0 3 1-1-1v-1c1 0-2-1 0 0l-4-1 3 2" style="fill:#fff;fill-rule:nonzero"/><path d="m168 149 2 2v-2zm-2-4h1zm36 63h1v1l2-1h-1l1 1q-1-3-3-1m-37-68h-1l1 1zm0 0q-1-1 0 0m34 55v-1c-2 0 1 4-2 1 2 2-2 0 1 2zm0 0v1h2zm-36-58 2 2zm44 63q-2 0-1-1-2 1-4-1l1 1h-2l-1-1v2h1l1 1 1-1 1 1c-2 0 1 3 1 1-4 1 2-3 2-1m-2-3h2c1 0 0-3-2-1zm0-3-1 1v1h1c-1-2 2-1 0-2 1 0-1-3 0 0q-3-1 0 0m-42-58v-1c1 3 2 0 0-1zm31 43-2 1 1 3h1v-1h2l-2-2" style="fill:#fff;fill-rule:nonzero"/><path d="M203 197q1-1-1-2zm-6-10q2 1 1-2v1zm-10-24h-2q3 3 2 0m11 19q-4-1-1 1zm0 0v2c0-1 1 2 1-1l2-1zm0 1 1 2zm-27-42 1 1" style="fill:#fff;fill-rule:nonzero"/><path d="m196 177 2 1 3 1q0 2 0 0v1l-1 1-3-2h1c-2 0 1 1 0 2h-2l1 1c-1-2 2 0 1-1 2 0-1 2 3 1l-1-1h1l1 1v-3l1 1v-1l1 1v-1l-1-1h2l-1-1-1-1h2l-1-1-2-1v1h1-3l1 1 1 1h-1v1h-1v-1l-1-1v1q-3-3-3 0m8 0q-1 0 0 0m-3 1 1 2zm0 0h-1zm-38-51-1-1c4 3 0-3-1 0zm14 18-1-2zm0 0c-2 0 0 2-2 0v1zm2-2-2-1q2 0 1-1h-2l2 2-2-1v1c3 2 2-1 3 0m41 81c0-1 3-1 0-2 1 2-2 2 0 2m-12-27-1-1c3 0 0-2 0 0zm-33-59h-1l-1 1zm16 27c1 3-2 1 0 1m-13-21h1zm9 13 1 1v-1zm-3-8-1 1c0 1 4 2 2 0h-1zm0 0q2 0 0 0m-7-10h2l-1-2-1 1" style="fill:#fff;fill-rule:nonzero"/><path d="m176 138 1 1c2 0-1-2 1-1zm18 22h-3zm-2 2c1-1 3 2 3 1l-1-2c1 2-2-1-2 1M206 175q2 2 2-1h-1 1v1l2-1h-2l-1-1-2-1 1 1-2 1zm24 45-1-2-1 2z" style="fill:#fff;fill-rule:nonzero"/><path d="m207 171 1 2 1 1v-1h2q1 0 1-1 3 0-1-1v1l-1-2v-1h1v-2h1-1v-1l-1 1 1 1h-1l-1-1c3 2-2 1 0 2zm0 0 1 1c-3-1 0 1 1 1l-1 1zm0 0q0 2-1 1zm38 76q1 1 2-1zm-15-37v-1zm-12-27q2 0 1-1zm4 3-2-2h1-2v1l1 1zm0-3c0 1-3-1-1 1zm11 23 1-1zm-12-25h2c1 1-3-3-1-2 0-1-4-1-1 2m21 33 1-1zm-75 75c-2 0 1 3 1 2zm19-86-1-1h-1c0 1 0-2-1 0l-1-1h3l-3-2q3 2 0-1v-1h-1c1 2-3-1-2-1 3 4 0 0 0-1l-2-2v1q-2 0-1 1l-2-2v1l1 2v-1l1 1q-1 1 1 2-4-2 0 1h2l1-1 2 2q-2 0-1 1l-2 2q-2-1-1 1l-2-1v2l-2-1v1-1h-1l-1 1-2-1 1 2h-2v-1l-1-1 1 2 1 1v-1l1 1h-1l1 2h1v-1l1 1 5-1 2 1v-1h1l-1-2-1-1h3v1h2c1-2-2-3 0-4l-1 1c2 3 2 0 2 0m-8-7q-2-2 1-2zm1 0c1-2-2-2 1-2zm0 10h1zm3-1-2-1zm0 0v-2zm1-1v-1zm2 1-1-1h1zm-11 4h-3z" style="fill:#fff;fill-rule:nonzero"/><path d="M338 269v1c-1 1-1-2-1-1l-1 1c3 1 0 1 0 3v-1q2-1-1-2v1l-1-1c0-2 4-1 1-2l2-2h-1q2-5-2-5c-1-3 2-1 2-3l1 1c-1-2 2-1 0-2 3-1 0-1 1-3q3 2 1-1c2-1 1 2 2 1v-1l1 1 1-4c-2 4-1 0-2-1l2 1c0-2 5-1 3-3h-1l1-1h-2c-2-2 0-1-4 1l-1-1v-1c2 0-1-1 0-2v1l1-1-1-1 1-1-2-1h-1c1 0 3-3 2-1l2-1v1l1 1-1-2v-2l-1 1 5-9c-2-3-4 1-4-2 1-5 6 1 5-9h-2c1-4 5-8 1-12 3-10 1-17-3-30 2-1 4 5 4 1q-3-4-5-3l4-4q-2-6-7-7c3-4-2-7-6-12 4-5-2-6-8-10 4-3-2-1 0-6-5 3-7-7-12-7-1 2-10 3-5-2-7-1-19-3-20 6-1-9-8 1-12-1 1 5-11 10-13 10l-1 1 1 3-1 1c0-4-1 0-8 4l-2 2c0 2-1-1-1 1 2 0-1 0-6 10v-1h-1l-2 3-2-1-1 1-1-1h2l-3-1v2h1q-1 2 1 2c-2-2 1-2 0-1l3-2 2 1-2 1h-1q1 4-2 10c-1-2-2-7-5-6l1-1h-2c2-2 0-3 3-1l-1-2 1 2c2-2-1-1 0-2h-1q-3-3-4-1l-7-4c6-3-4-15-5-8-3-4-1-4-4-6l3-2c-6-14-28-43-48-42 0-9-23-10-26-5-19-3-34 12-48 23l1 1c-6 2-5 6-10 10 5-14-12 12-2 4q-9 12-5 27l-4-2q0 4 2 4c-5 7 0 13-1 21 3 0 3-3 4-1s-3 1-3 3c9 15 9 40 25 48-2 12 24 27 20 40 6-4 10 15 13 6 2 4 1 12 6 10-1 2-5 3-2 5 2 3 1-4 4-1q-1 1 2 1c-5 2 3 5 2 7 3 1 1-3 4-1 2 2 0 8 6 7-1 10 2 10 10 11l-3 4c6 0 5 10 8 11l2-4q0 4 6 4l-5 3c2 6 7-5 4 3 2 2 4 0 5 3l6-6c-1 1 0 5-2 4 0 2-3 0-2 5q2-2 3-1c-3 3 0 5 0 8 4 1 2-5 6-4q2 3-1 5 3 3 7 3c-2 5 6 5 4 9 4-2 2 4 8 3q-3 0-1 3c5-4 0 0 1 3q3 0 2 2c8-5 6 5 9 8q2-4 5-2c-5 2-1 3 2 2 0 2 4 4 3 7 15 5 36 17 43-4l3 3c2-5 6-6 4-11 6 4 5-14 8-7 3-3-5-4-2-7l2 3c9-12 6-19 16-27-3-4 4-11 2-16q2 3 5-2c-2-5-5-3-7-8 6 1 4 5 8 6 2-7 2-5 6-9v-2c-1-4-4 0-3-3 3 2-2-4 2-3q0 3 2 2c-2-1 1-1 1-3q-3 0-3-2c1 0 1-3 4 1q3-7-1-10c3-3 3 0 5-1 3-2-1-14 3-13l1 1-1-1h1s0-4 3-2h1c-1-2 2-1 1-2l-1-1-1-2h3v-1l1 1q-1-1 1-3v1l2-1zm2-22q1 1-1 1zm0 2-1 1zm4-32q2 2-1 2zm-10 53v1zm-1-20c0 5 3 2 0 5 0-2-4-6 0-5m-60-100q2 6 6 4c-2 3 0 1 1 2l-4 1 1-3c-2 4-6-2-4-4m-1 4 3 4c-1-2-3 4-4 3l1-1v-1l-1 1v2l-1-2-1-1q1 4-1 1c2 0-1-2-1 0v-1h1l-2-1v1c-2-5 2-2 6-5m-6 8q2 0 0 0m-3 4h1zm-1-25q0-1 0 0m-7 27 4 1h-2l1 1h-2l3 2q-1-1-3 1l-2-1 3 2-4 1h-1c-4 2 3-4 3-7m-5 8c0 3 2-1 2 1l-2 1q3 1-1 1l-1 1q0-2-2 1zm-14 13q-1 1-1-1m-5-25q0 2 0 0m0 5c2-2 2 3 0 1zM91 192c-4 0 1-4 1-5-1-2-2 1-4 1l1-4q11 2 2 8m4 22q-1-4 3-6c-1 3 2 2 3 5zm3-13-3 2q-2-4 5-6l1 5q-1 1-3-1m42 54-7-8h2l2 2 1-1c1 2-1-1 1 0l1 1h-2l1 1h-1l1 1 1-1 1 1c-1 3 2 3-1 4m0-6 2 1v1zm1 4v1zm5 8 1 2zm2 3 2-1h-3l1-1v1-1h-1q-1-2 1-1v-1h-1 1l-2-1v2h-1v-2q0 2-4-2 2-1 3 1l-1-1v-1q1-1 1 1v-1h1l-1-1v-1l1 1-1-3h2v-1c-2-2-2 0-5-2q1-1-1-3h2v-1l-1-2c1 2 1-5 3-1l1 1h1q3 0 2 1l-2-1 3 2h1l3-2-2-2 2 1v-2l1-1q1 3 2 2l-1-2v-1h2-1l1 2v-1c2 1-1-2 1-2h-1 2l-3-1v2h-2l-1-2 1 2-1-1-2-1-1 1v1l1 2-2-1h-1c-1-1 0 2 1 1q-1 0-1 1l-2-1q1 3 2 1l1 1-4-1v1l-2-3h-1c2-2-3 0-2 3h-2l2 1-1 2h1q0 2-2 1h-1q2 1 1 2h-1l-1-1 1-1h-1l-1 1-1-1v-2l-1 2-1-1q0 3-4 0 5-1 3-4c-2 1 0-1-2-2-4 4-1-7-4-5l-2 2-3-1c3-3 1-2-1-5l2-2c-6 3-2 4-3 6q-3-3-9-4l5-1c-1-4-5 0-6-4 4-1 1-3 1-7 1 4 4 0 6-1v-5h1l-1-1h-1v-1h1c-2-2-1 10-9 7 3-6 6 1 6-5 4 0-2-1 1-5-6 3-1-1-6-3 0 1-2 7-4 4 5-2 3-6 4-7l2-1 1 1-1-1q0 2-2 1c4 6 4 0 7 0-1-2-5-1-3 0q-1-1 0 0-2-1 2-3c2 4 1-1 3 1h-1l1 2q0-3 3-2v-2h1q1 1 1-1l1 1v-1c0 3-2-2-1-1l1 1h1l-1-1h1l-1-1v-1l-1 1-1-1v1l-1 1-1-1v1c1 3 0 0-1 1v1l-1-1v1c-3 2-3-5-7-3 2 12-6-4 3-1l-1-4c-7 2-2-6-8-7 5-2 0-1 0-2l5-3q-2-4-5-5c-3 2 2 2-1 4l-2-4c3-1 9 0 5-1-1-3-7 2-7 0l4-5q-1 5 3 3c0-3-7-7-2-9-1-2-9-1-9-4q0-2 3-2c3 1-3 2 1 4h2q-1-3 2-5-6-4 0 0 0-8 4-8c-4-5 5-8 1-14-3 3-4-2-4-4 2-1 5 4 7 3-4-4 1-3 2-3l2-9c8 0 13-6 18 5 5-3 10-13 17-7 1-5 0 0 1 0l3-3 2 5c4-3 18 4 17 6h4c1 6 14 5 12 14 7 0 7-2 13 1-5 1 3 4-4 5 4 2 7 10 12 11q-3 3-1 6c6-1 11 12 10 13h-1v1l1-1q0 2-1 1l1 3h1c2-2-2-1 2-2q1 4 7 2c1 3-3 3-4 1q2 2-1 2c8 9 13 2 8 2l3 1c2-7 1 1 0 1q-2 3 1 3h-1l1 1-3 1v1h-2v2c1 0 0-3 2-1h-1c2 1-1 2 2 2h1l1-1v-1c0 1 0-2 1 0h1q1-2-1-1 2-2 2 1h-1l1 1h-1q0 3-3 2v-1l-1 1 1 1h-2l-1-1h-1l-2-1 1-1h-3l1 2h-1q-2-3-2-1l-1 1v-1h1-2c-1 0-1-3 2-1h-3l-1-1v-1q-4 1-1 1l-1 1-1-4h-2 1l-2-1c3 1 0 0 0 0 0 1-3-2-2 1v-1l2 2 1-1 2 2q-2 1-5-1h-2l-1-2h1q2 0 1-1h-1l-2 1v-1l-2-1h3v-2s1 4 2 2v-1l1 1h1c4 3 1 1 1 0 1 1 1-2 2 1l1-1 1 1-1 1 2-1-3-4 2 1v-1h-1l-1-3q2 1 3-1h-2l1-2h-2c1 3-3 2-2 4l-2-1q0 3-1 2v-1h-1v1l-2 1 1 1h-3l-1-1c1 3-3 2 1 4v1h1v1l-3-1 1 1 1-1 3 4h4-1l2 2c-1-1-2-4 0-1l2-1 1 2c-2 1 3 2 2 0l1 1-1 2v-1h-2l-1-1v1h-5c2 0 0-3 2-1v-2l-1-1h-1l1 1h-3c1-3-5-3-1-1 0-2 2 1 0 1l-2-2 3 2-2 1h-1l-2-2 2 3h1l-1-1 4 2v1l-1-1-1 1 4 2c-2 2-4-1-2 1l1 1c-1 0 2 1 1 2-3-2-2 3-4 1q-1 1 1 2l-1 1-3-3h2v-2h-2v2h-1v1h1l-1 2h1l1 1v1c-2 1 0 2-2 1h1-3v1l-1-1h2c-2-3-2 1-3-1h-4 2l-1-1h-1v-1l2-1v-1c3 0 1 1 2-1l1 1h2-2l1-1-2-1c6-2-2-1-1-5v2h-3v2l1 1 1-1v2-2h2v1l2 1q-1-1-2 1l-1-1-2 1q1 1-1 1h1l-1-1v2c-1-2 1 1-1 0v1l-1 2-1 1h-2c-2-4-1 0 0 0 0-3-1-1-2-2 0-2 3-1 1-1l1-1h-2v-2l-1 1c4 4-1-1 0 1q2 2 1 3v-1h-1l-1 1 1 1h3v2h-1v1h1l3 2c-3-3 0 1 2 0q1 1-1 1h-1c1 2-2 1 1 0q-1 1 1 2-3 0-1 1-2 0-1 1v-1l-1-2-1-1v1l-1-1q2-1-1-1l1 2c-1 1-2-2 0 0l-1 1h-1v1h-1v-1 1-1l-1 1v-2l-2 1 1 2-2-1c2-2-1 0-1-2v-1l2 1-2-2h2q2 0 1-1h-1l2 1 2-1h-1v-1h-1l-1 1-1-1v-1h2v-1h-1l-1-1-1 1h-4l1 1h1v1c-1-1-1 2-1 1h-1c2 0-1-2 1-2l-1-1-1 1h-1v-1l-2-2v1l-1-1h-1v1l-2-1v2h-1c1-2-2-1-1 0l-1-1-2-1-1-1 1 1-1-1v1h-1l-1-1v1l1 1-1 1-1-1 1 1h-2 1v2q-3-2-1-2l-2-1h2l-2-1h-1v1l-3-2h-1l2 2c-1-2 2 2 3 1v-1 3l2 1v2h-1l1 1 1 1v-1l1 1h-1 2v1l-1-2v-2 1-1l2-1v-1h1l-1-1q-1 1-1-1h-1 3v2l1-3v1h1l2 2v-1 2h1v-1h2v1-1l-1-1h5l-2 1q1 2-1 1l1 1-1-1q0 2-1 1 2 3 4 2l1 2-1 1 2 1 1 1-3-2v-2l-3-1v2c-1 0 2 1 0 1v-1l-2-1 2 2-1 1h-1l1-1-1-1v3h-1l-2 2v-2l-1-1h-2v1h-1c2 0-1 1 0 1v2c-1 1 0-2-1-1h-1v1q-1 0 0 0l1 1v1l1 1-3-1-1-1 1 1-2-1 2 1-1 2-1-2v2l-2-2 1 1v1c-3 0 1 2-1 3 4 1 8-4 4-1l1 1h2l-1-1v-1l4 4v2h-1v1l-1 1v-1l-2-2-1-1-1-1v1h1l-1-1-1 1 2 1q-2 1-2-1-1-2-3-1v1h-2l3 2h6v2l-1-1 1 2c-1-1 2 0 1 1h1l2-1v1-1h1q2 0 2-1h2l-1-1h2v-1c2 3-1-1 0-1q-1 1 1 1h1v-1h1v-1h1q2-2 5-2l-1-1v-1l1 2h2v1h2l-1-1-2-1 1-1h-1v-1c3 4 4-2 7 3h-2 1l1 2h-1l1 1 1 1-3-2-1 2h2v1l-1 1-2-2v1h-2l1 1v1l-2-1 1 2 1 1c-2-2-2 1 0 1l-1 1h-1l-1-1q1 2-1 1l-1-1v1l-1-1v-1q1-1 2 1l-1-1h1l-1-1 3-1h-1l-1-1h-1 1l1-1h1l-1-1c5 1 2-1 3-2q-2-2-5 1v-1 2c1 5-2 0-2 2l-1 1-1-1h-3l1 1 1 2 1-2h1l1 1h-2l-1 1-3-1h1l-1-2c1 3-2-1-1 0l1 3h-1 1l-2-2 1 2-1-1h-1q1 1-1 1h-1v1h-1v-1l-1 1v1h-1v-1 1h-1v1h3l-1 1h-1l1 2-2-1v-1l-1-1v1l1 1h-2v1l1 1h1v1q1 0 1-1l1 2v-1h1c-2 0 1 2 1 2q-2-3 1 0v2l-1-1v1l-2-1v1c-1-2-1 1-3-1v1c-3-4-5-1-4-3h-1q0 3-1 2l1 1c0 2-2-1-2 0v1l2 1v-1l3 1h-1v1l1-1v1l1 2-1-1h-1c0-1-3-3 1 2q-1-3 0 0 1 1 1-1l1 1-1-1h1v-2l2 1-1-2q2 2 0 0v-1h1q-3-2 0-1l1 1v-1l1 2v1l1-2 1 1 1-2v-2h-1v-1h-1q-3-4 0-5v1q0-2-1-1v-3 2h1c-2-4 1 2 2 0v1l-1 1c1 1 1-2 1-1l-1 1v2h-1l1 2h2q-1-1-1 1l1 1v1h3l-1-1 3 1v-1l-1-1v-1 1h-3v1c1-2-3 0-1-2q4 1 4-2h1c-2 0 0-1-2-2v1l1-1q2 0 1 1 1-2 1 1l2-1 1 2-2-3 1-1-1 1h3l3 1 1-1 1 2 1-1v-1q-2 0-1-1h-1v1h-1l-1-2 4-1h1v-3l1 1 5-2-1-2h2l1 1q-1-2 1-2v1l1-1v3c1-3 1 2 2 1l-1-1q2 1 2-1h-1v-1h-2 1l-1-1v-2 1h-2l-1-2-1 1-1 1q1-1-1-2c4 0 1 2 0-1l2-1 2 3v-3c2 1 0 2 3 3l-1-2h2l1 1c-2-3 0 0 0 0v-1h1l2 1q-1-2 1-1l-1 1h3c-1-3-1-1-2-2h1q-2 0-1-1l-2-1 1-1 1 1h2v2q0-3 1-2c2 0-1-2 1-2v1l1 1q-2-3 1-1l-1-2c1 2-1-1 1-1 0 3 2 1 2 2l-1-1 1-2h2v-1c1 1-2-3 0-3h-2l2-1 1 2-1-2 1 2h1q1 0 1-1l1-1h1v-2c3-1 7 1 4 1h1c1-1-2-2 1-2v1h1v-1h4l-2-1h3l-1 1q1-2 2 1l2-2 1 1q-2 0-1 1h-2l1 1v1l2-1-1-2 1 1v1h-1v1l-1 1v1l-1-2h-1q1-1-2-1c1 2 2 0 2 2h1l1 3q-2-1-2 1v-2 2c1 1-3 2 0 2v1h-1l1 1v1l1-1-1 2v2l-1-2 2 1v1l1 1c-1-4-4 2-4-2l-2-1v1h-1v1h-1l-1-1-1 1 1 1-1 1-1-1-1-1c4 0 0-2 1 0l-1-1h-1c2-1-2 0-3-2l1-1 2 1q0 1 1 1l-1-1 2 1v-2h1v1l2 1v-3h2v2h3v-1c0-1-4-1-1-1l1-3h1-2q-1-3-3-1-1-3 0 0l-2-1 1-1 2 1-4-2 1-1-2-1h1l-1-1v2h-1l-1 2 2 1h-4l2 2 1-2 1 2 2-1v-1l1 2 2-1h-1v2l1 1-1-1h-2 1-2v1h-1v-1h-2l-1-2h-1c1 1-2 0 0 1h-3q-1 2 1 3h-3l3 2 1 1v1h1v1h-3v-1l1-1h-2l-1-2h-1l1 2-2-1h-1v1h1l-3 1v-1 1h-1v1l-1-1 1 2v1c-2 0 0 3-2 2l-2 1 1 2v1q-2-1-1-2 1 3 1 0l-2-1v2l-1-1 1-2h1c2 0-1-3-2 0l-1-2v2l-2-2v2h1v-1l1 2-1-1v1l4 3h-2l-1-1q2 2 1 3l-2-1-1 2q0-3-2-2l1 1c1 0-2 0-1-1h-1q-1 2 1 2v-1h1c-1 1-5 4-6 1q-1 1 1 2h-1 2q0 3-3 1h1-1l-1-1-1 1-1-1 2 3-2-2q3 2 2 3h-1v1l-2-1 1-1h-1l-2 1v1l2 2v-2l1 2v1h-2v1l-1-1q1 1-1 1c1-1-2-1-1-2h1l1-1v-1l-1-2-1-1h-2l2 2h-1l1 1-1-1-1 2v2l1 2-1-1v2h-1v2l-1-1v-1l1 1q-1-3-3-2l-1 1v-1h-2l-2 1 1 1-1 1v1h1v1h-1v1h1v2h1l-1-2v-1l2 1v2-1h1l-1-1h1l-2-2q8 2 8-1 4 0 2-1l1 1 1-1-2-1h3c-1-1 1 3 1 1h1q3 1 0-2l3 1-1-1 1 1v-2l2 1v1l-2 1q2 1-1 1l1-1h-1v1q-2-1-2 1 1-1 1 1h-1l-1-1v1l-1 1q-3 0-1 2h1c1 2-5 0-2 0q-2-4-2-2c-2-2-2 1-2-1l-1 5h-1v1h-1v-1h-1 1-2l-1 1c2 2 0 0-1 2v-3l-1-2q-4 0-3-1l1 1 1-1-1-1 1 1h-1l-1-2 1-1h-2c2 2-1 1-1 1 0 1 3 0 1 1v1l-2-1-2 2c-1-2 2 1 1-1-3-2-1 1-3 0l1-1-2-1h-1l-1 1 2 1-3-2h1l-2-2v2l-1-1v1q-3 0 0 2c-1 1-3-3-3-1h-1l-1-1 2-2h-1v1l-3-3 2 2c-1 1-3-2-3-1v1l2 1-1 1-3-1h1v1h-1l1 1h1q2-3 0 0 2 1 2-1c1 6 3 3 0 1q2 0 1 2l1-1h1c1 1-1 2 2 2v-1c0 2 2 0 0 2 3 1 0 0 1 1-2-2-2 1-1 0l1 1h-3c2-1-2-2-3-2l-1-1q1 2-1 1l1-1h-2zm2-25v-1h2l1 2-1 1q-3-1 0-1zm1 2v3zm-37-29q2-1 0 0m-2-1q0-1 0 0m120-12 1 1zm0 0q0-1 0 0m0 0v1zh-1l2 1h-3v2l1 1-2-1 1 2c-2-2-1 1-3-1q1-1-1-1h2v-2l1-1-2 1-1 1c-2-1 2-2 0-3l1 1 1-1 1-1v1c2 4 2-2 0-2 0-2 1 1 1 1 0-2 3 0 1-2 5 0-1 1 0 2q3 0 2 1m0 9v2c-2 4-7-3-6 0l2 1-4-2h1l-2-2h-1l1-1v1l2 1h1l-1-2 2 1c-1-1-1 2-1 1h1l2 1c-2-2 1-1 0-2h1zm2 6c-1-1-1 2-2 0v-2zm-1-3v1zm0 4q-1 0 0 0m-4-3-2 1 1-1zm0 0h2zm1 3q2 0 0 0m-1-2-1 1zm0 3q-1 0 0 0m0-1q-1-1 0 0m-2 2-1-1 1-1zm-2-2h-2v-1q2-1-1-2 1 3-1 1l1-1-1-1v-1h1v-1l2 1v1h-1l2 1c-1-2 2-1 0 1l1 1q-4 0-1 1m-3 1q2-1 0 0m0 0v1m-3 2v-1zm0 2h-1zm0-10v4h-1l-2-1 1-1h-1l-1 1h1q2 1-1 1c2 3-2-1 2 1l-4 2q2 0 1 1l-1-1v-1c0 1-3-2 1 2h-1v1h-1c1-1-3-2-1-1l2 2-2-1 1 1-2 1-2-1h-1v-1l-1-2h2l-1-1h2v-3 2q-1-3-3-2l1 2-2-1h1v-1h2v-1h-2l3-1 1 2v-1h2c1 0-2 1 0 1l2-2v-2q2 2 0 0c-1-2 2-2 1-1l-1-1h3v1l1-1q-1 2 1 1l1 2zm-2 8q0 2 0 0m-1 1q2 0 0 0m-4 8 1 1-4-1v-1h-1v-1l2 1v-1l-1-1 1-1q1 2 1-1l1 2-2 1 3 1zm-3 1q2 0 0 0m-3-2h-2zm0 0h-1l1-1-2-1v2h-1q3 0 1 2l-1-1h-2v1l3 1h1q1 1-1 1l-1-1c3 3 1 0-1 1l1 1-2-1 1-1h-4 1-2c2 1-1-3-2-3l2 4-1-1v1l2 1-2 1-1-2 1 1v1l-1-1 1 1h-1l-1 1h1l-2-2-2-1q3 0 2-2v1h1v-1q-2-4 1-2l-2-2v-3h2c-1 0 2 4 2 2l-2-2 2 2 2-1c-1-2 1 2-1 1v1c-3-2 0 1 0 2v-1h2l-1-1v-4l1 3 2-1h-1l-1-1 2-1q1 1 1-1v3c-1-2 2 0 0-3l1 1-1-2v-2h-1q5-1 0-2l1-1 1 3v2l1 1h1c1 2 2-1 2 3h-2v1l3 2c-6-1-4-1-2 1m-1 3v-2c-2 0 1 1 0 1zm-1 4 1-1zm-1-1q-1 0 0 0m-12 9h-1v-2zm0 0c3-2 5 0 3-2q3 1 0 2zm3-4q2 0 0 0m-4-12-2-1 1 3h-1l-2-6h1v1l2 1 1 1zm0 0c0 1-4-2 0-1m-4 5v1l-1-1-1-1v-1l1 1v-1h1-1l1 1h1v1h1v1zm-4 1 1 1zm-1 1h-2l1-1h-1zm0 0q0-1 0 0m-1 2v1zm2-4-1-1h-4c-3-2 2-1-2 1v1q2-1 2 1l-1-1v2l-2-1c0 1-1-3-2-1q1-1-1-2l-1 1-1-1v1-1q-1-2 4-2l1-3 1 1h2c-1-2 2-1 0-1l-1-2c0 2 1-1 3 1v2l1 2v1l2 1zm0 0c4 0-3-4 1-1-2-4 1 0 2 2zm-4 4q-1 0 0 0m0-2q-1-1 0 0m1 3h-1zm-2-1-1-1zm-4 4q-3-1-1-3h-1l-1-2-1-1c-1 2 2 2 0 3 0 0-3-3-1-2-3-5-4-3-1-2v-3q-1 1 1 2l-1-1c-1-2 2 0 0-1h1l2 4h1l2 4 1-1 1 2-3-1zm0 1-3-1q3 0 2 1zm-8-9q0 2 0 0m5-3h-3zm-2-4h1l1 1zm5 10h-1zm0 0s0-4 1-1zm2 0v2l-1-2zm-2-9c-1 1 2 2 0 2zm4-3-2-1zm1 1q1 1 0 0m5 0-2-2q3 2 1 2v1c-2 1-2-2 1-1m-3-5-1 1-1-2c3 0 2 3 0 0h3l1 1v-1l1 2h-2v1zm2-4h1zm0 11 2 1zm1-3v-1zm-1 6 2-2h1v-1h-1l1-1c0 1 3 5 1 4 2 5 0-1-2-1l1 1zm4-2-1-2h1zm6-2v-1m-2 1q2 2 0 0m0-2q-1-3 0 0m0 6 1 1zm5-8h2v1h-1l-1-2m-2-7 1-2 1 2-1-1zm-1 1h2zm3-3h1zm0-2 1 1zm1 6q3 0 2-1h1l-1 1q1-1 1 1v1l-3-1h1q0-2-2-1 1-1-1-1zm5-5q2 0 1 1l-2-1q0 5-2 0h-1c1-4 3 0 4-1m2 3 2 1c1 0-3 1-2-2zm3 0v-1zm0 4q-3 0-1-1zm0 1-1 2v-2m-2-3q0-1 0 0m-4-1 1 1zm-1 5h-3 2l1 1zm10 5h-2zm4-1q0 3 0 0m0-4 1 2-1-1zm1 0c-2-2 3 0 0 0m0 7-1-1q2 0 1 1m0-4-1-1m1 0q2 0 0 0m-7-7v-1zm0 0q-1 2 0 0m-1-9h-2zm-1 1h1zm0 1q-1-1 0 0m3-1v1zm2 3q1-1 2 1-1-1-1 1zm0 0c-1-1-2 1-2-2v1zm0-11 1 1zm1 1q0 2 0 0m0-3c1 3 4 2 1 1l1 3c-1 0-3-5-3-2zm0 0q-2 0-1-1m6 4h-1v-1zm0-8c5 1 0 1 0 1zm4 2c0 1-1-2 1 0q0 2-1 1v2l-1-1v-2h2m1 0 2 1v1l-1-1-1 1-1-1zm0 0q0 2 0 0m4 0h-1v1h-1c1 0-1-1 2-1m-1 3-1 1q0-2-1-1l1-1zm0 0c1 0-1-3 2 0zm-4 9v-1zm-1-2 4-2c1 2-4 1-4 2m0 1h-2v-1h-3 1l-1-2v-2 1c1 0-2-1 0-1v1l2 1v-1l1-1h1q2 1-1 1l-2 2h1v1h3m-6-5h2zm8-1-1-1zm-2 1q1 2-1 1zm0 0-1-2zm1-2h-2c-1-1 3-2 2 0m-2 3q2 2 0 0m0 2q-2 1-1-1zm4-1v-1zm-1-5h1zm-3 2h-2zm-2 0-1-1c-2-2 2 0 1 1m-1-1q-3 1-2-1zm-4 3v-1zm-1-3q2 0 0 0m1 5h-1zm7 14c1-2 5 1 1 0m1 0q2 0 0 0m7-13h2c0 1-4 2-3-1m1-9q2 0 0 0m2 0q2 0 0 0m2 2q-1 0 0 0m-17-6 1 1zm-11-7h1zm1 0 2-1q1 1-2 1m8-1c-2 0 1 1 0 1h-2l-1-2q2 0 1 1zm1-2-1 1zm1 3h-1c-2-2 1-2 1 0m-1-2 1-1zm-3 2q2 0 0 0m0 1q2-1 0 0m-2-1q2 0 0 0m-1 8 3 2h-2zm-18 21q0-1 0 0m-1-2h1zm-5 1q0-1 0 0m-7 5-2-1h1v-1c2 1-1 1 1 2m-14-3-1-1zm-4 21q-1-1 1-1h1zm21 10v-1h1c0-1 1 2-1 1m1-6q0-1 0 0m-5 6-2 1v1l1 1-1 1v-1q-1 2-3-1l1-1c1-1 2 3 1 0l-1-1h1l1-1zm0 0h-2l-2-1 1-1h2q0 3 1 1 3 0 1 2m-3-2q2 0 0 0m2-1 2 1h-1zm19-7q2 0 0 0m4 0h1zm35-20q2-1 0 0m4-1v1l-1-1h-1 3m-1 1 1 1zm3 14-1-2 1 1v-1c0 2 2-1 2 1-1-3 6 0 6-1v-1h1c1 3-4 1-2 4l-2-1c2 1-2 0 1 1v1h-2v-1h-1l1 1-2-1h-1zm0 0q-1 2 0 0m2-6 1 1zm2 3v-1h1v-1h1l1 2zm0 0q-1-1 0 0m0-2q2 2 0 0m6 4h4l-1-2 1 1c0-2 5-1 2 0v3l-3-2v2h-3v-2m7-6q1-1 2 2zm8 18-1-2h1l-1 3-1-3zm-1-5q0-1 0 0m1-9 2 1h-1v1l-1-1zm3 5-2 1h-1zm-6 1-2-2 3 1zm1 4h-2v1l-1-1 1-1h-2c2 1-1 2 1 2-2 2-2-1-1 1l-1 1-1-1v1h-1c0 3 0 0-1 0v1h-2l1-1-3 1 1 1h-2v1l-1-1v1l1 1q-2 0-1 1-3 1 0 4l1-1v-1l-1-1h1l2 4h-2c1 0 2 4-1-1h-1l1 1h-3v4c0 2 0-1-2 0v1c0-2-2 0-1-2l-4 1-1-3-1-1 1-1 1 1v2l1-2v1q0-2 1-1v-2h-2l-1-1c1-1 2 2 4 0l1 1 1-1q4-3 2-4 0 4-1-1l1 1h1l-1-1c3-1 0 0 0-1h2v-1 1l2-1h2l-1-1 1 1-2-2h3v-1l1-1q1 1 1-1v1l2-1v-2l-1 1 1-1 2 1h2c3 3 3 1 1 2zm-4 5h-1zm-2 10h1c-1 1-1-2-2-1zm0 0h-3q3-1 2-3l1 1zm1-2q2 2-1 1zm3 3v1q1 1-1 2v-2zm2 9 2-1 1 2-1-1c1 2 4-2 2-2h-2c3 0 0-1-1-1v-1h1v-1l1 1h2v-1 2h-1v1l4 2-2 1q0-2-1-1 1 2-1 3l-1-1-2 3-1-1-2-1v1h1s-6 6-8 3l-2-1v1c6 1 2 2 2 1h3l2 3q-2 0-1-1h-2v1l-3-1 1-1h-1l-1 1c0-1-4 1-2-1h1l-1-1-1-1v-1c2 1 0-1 3-1h-1l1-1 1 2 2-1-1-1q1 1 1-1h1-1v-1l-1 1-1 1q-3-1-1-3c0 3 0 0 3 0l1-2 1 1h2l-1 1v-1l-2 2v1h2l-1-1 3-1v-2zm-15 9q3 0 1 1m0-3-4 2-1-2 1-1-1-1h-1v1l-2 1-3-2h2l-1-1 2-2v1l1 2 4-2-1-2h-1l1-2h1v-2h2l1 1v-1 1l1 1c-3 0 1 0 1 1h-2l-3-2 2 2h-3l2 2-1 1v1h1-2l-1 1c1 1 4-2 3 0zm-5 1c2 1-1 1-1 1zm0 9h-3l-1-1h-1l-1-3v-1c0 2 0-1 1-1v1l1 1 1-1v3c0-2 3 2 2 1h-1zm-4 0 2 2zm-3-1h-2zm-1 5q-1 2-3-1l-1 1h1l-1-1h3zm0 0q-1-1 0 0m-4 4q2 2 0 0m1-1-1-1-1-1v2-1l-2-2h1l2 1h2v1-1 2zm-2 1-2-3zm-3-1 2 1c-2-1 0 0-2 1l-1-1zm0 0h3zm-1 3h-1q2 2-2 3v-1h-2l1-1c0 2 2-1 0 0l-1-1q2 1 3-1v-2h1l1 1 2 1h-2c0 2 2-1 1 1m-1 3-1 1zm0 0q-1 0 0 0m-2 8v1c-1-1 0 2-1 0zm1 3q1-1 1 1h1l1 1h-1v1l-1-2 1 2h-1l-1-1h-1zm2-2v2zm-1 0q0-1 0 0m2 1 1 1zm0-1v1zm-4 7v-1h1l1 1c-1 0 0 3-2 0m-1 4h-2q1-2-1-2v1l1-2v1h1v-2l2 1c0 1-3 3-1 3m-3 0v1zm-1 0q0-1 0 0c-2-2 2-2 0 0m-2-5-1 1 1 1-2-1h-1v1h-1l1 1v1l-1-2v2h-1l-1-1c1 3-5-1-3 1h-4v-1h2c0 3 2-2 3-1v-2 1q0-2-2-2l2 1c-1-1 2 0 0-2 2 0 3 3 3 1h-1l-1-1h4l1-2 1 1q-3-5 0-1-2-3 1-1v-1h2v1q2 0-1-2l2-1-1-1 2 2q-3 0-1 2l2-2v1l1 1v3l1 1c-3-2 0-3-3-2l-2-1-2 1 1 2h1l1-2 2 2-1 1q-1-1-3 1 1-3-2-1zm-16 11-2-1 1 1h-3l1-2-1-1h-1 1v-1l-1-1q1-1 1 1h1l-1-2 1 1 2 1q-3-1-1 1h-1l-1-1 1 1h3l-2-1 1-1c1 2 1-1 2 3h-2zm-5 0-1-1 2 1zm-2-9 1 1zm-3 7c-2-2 1-2-1-3h2l1 1v1l-2-2v2m1-5q2-1 0 0m1 6c1 3-2 0 0 1m0-1h1zm0-12-1-2h1l1 1h-1zm-1-2q2 0 0 0m1-2 1 1-1-3h-3 2-2q0-3 2-1v-1l-2-1 2 1v-2h-3v2h-1v-1l-5 2q0-3 2-2l-2-2v-1l-1 2c-2-2-1 1-2-2h1l1-1h1q0 3 2 2c0-1 1 2 0 0v-1l1 1h3v1l3-1q0 3 3 0l-1 1q3 1 1-1v1l-1-1 1-1v-1l-2 1v-2l-1 1c2 4 1 1-2 1v1l1-1v-2l1-1v1h1l1-1v-1c2 3 1 0 1 0l2-1h-1c2 1 2-2 2-1-2 2 2-1 3 2v-1l2 1v1c0-3 4-2 2-4 0 2-2 0-1 2h-2q2-3 5-1l2-4q-1 1-4-1l1-1 1 1c-2-1 1-1 1-1l1 1-1-1h1c1 1 1-2 2-1v2l2-1c0 2 1-1 2 0h-1l-1-1q2 1 2-1h-1l-2-1-1 1c0-3-2-1 0-3 1 1-1-2 1-1q1 2 2-1l1 1v1l3-1-1-1v-2h1l1-2 2-1v1l1-1c-1 0 2-2 0-2l-1-2h2l-2-1h1q1-1 2 1v-1c-1 4 1 0 3 0l-1 1 1 1h-1l1 1c-1-1-1 2-2 1l1-1h-2l1 2-1 1c1 1 1-2 2-1l-1 2 1-1 1 1-2 1 1 1v-2l-2 1c-3 1 0 3-2 3v-1h-1l1 1h-1l-1 1 1 1v1l-1 1v-1l-2-2v1l1 1c-1 1-4 0-1 3l-1-1-3 2-3 1q2-1 2 1 1 0 1 1h1v-1h1l-1-1h-1c2 1 1-3 3 0h1l1-2c1 3 1-2 2 1v1l1 1-1 1h-3 2v1h-1l-1-1h-1v-1l-1-1v1c1 3-1 0-1 1v1l-2-2q-2 3-2 1l-1-1 1 1-2 1h-1v1h2l-1 2-1-1c1 2-1-1-2 0 2 0-2 1 1 1l1 1h-1v1c-2-1 0-2-2 2v-2l-2 1 1 1 1 1 1 2-1-2v2h-1q-2-3-2-1h1l-2-2h1v-2l-1-1-2-1v2h1v2l1 1-1-1h-2v1h2l-3 1-1-2v2c2 1 1-2 3 0-2 0 0 2-2 1h-3 1-2l1 1h-2l2 1h3v1h-2l2 1h-3l1 2h-1zm-11-6h-1zm-3-2-2 1v-1h-1c-2-1 2-2 1 0zm0 1h-1zm-4 4-2-1v-2l1 2h1zm-4 1 2 1v-1zm0 0h1v1q2 2 1 3l-1-1 1-1zm4-5q0-1 0 0m1-1q-1 0 0 0m-2-9 2 1zm5 1 1 2h-1l-1-1-1 2q-3-1 2-3m1 6q1-3 2-1c-1-2-1 3-3 0l1-1zm2 1s-2-3 0-1zm0-2h2c-1-1-2 2-2 0m2-9v2h-2q2 0 1-1v-1h-2q0 2-1 1l1-1c0-2 3-1 1-3l1 2zm0 0v-1c2 1 2-2 2 1zm-3 1q2 0 0 0m0 1q0 2 0 0m8-3v-3h1l1-2v1-1l1 1h1v1l2-1q3 0 2 2c-1-1 1-1-2-1 0 1 6 1 2 2v1l-1-1 1 1v1l-1 1v-1l1 2h-1l-1-2-1 1 2 1h-3l-2 1v-1h-1l-1 1v1l-2-1v-3zm0 0q0-2 1-1m3 7h1v1zm-1 1q2 0 0 0m1-1q-1 0 0 0m-4 5q1 2 0 0m0-6-2-1v-1l2 1zm-2-7h-1zm-2 0h2zm17-5 1 2q-1 1-1-1zm2-4c0 2 0-1 1 0v2q-2 0-1 1l-2-2zm3 3q0-1 0 0m0 0h-1l2-1zm2-1-1-1zm0-2q0-1 0 0m0 1v-1h2l-1-1q2 1 1 2l1 1h-2l1 1h-3q2 0 1-2m4-1q-2-1-1-2zm2 3-2-2h2zm0 0q2 1 0 0m6-9-1-1zm1 4h-2zm-2 0h-1l-1-1zm0 0h-1zm1-4q0-1 0 0m-1 0-1 1c1 3-2-2 1-1m-1 7v-1h-1zm-2-6 1 1zm1 5q-1 0 0 0m-1 1v-1zm-1-3c2 3 0 0 0 0q-1 0 0 0m1-3-1 1q-1-1 1-1m-3 8q-1 0 0 0m-4 3 1 1c-1-3 3 2 0 0 1 2-5 0-1 0l-1-3c0-1 1 2 2 1m-3-1 1 1zm1 4q1 1-1 1zm-3 3 1-2zm-1-2h1zm-2-3h2zm2 4q-1 0 0 0m0-6 1-1zm1 1v-1m-1-3q0-1 0 0m-1 5h-2zm-1 4q-1 0 0 0m0 3v-2zm0 0c0-2 2 0 1-2h2l1 1q0 3-3 1l1 2-1-1-1 1h-1q1-1-1-2zm24-25q2 0 0 0c-4-5 0 1 0 0m1-5q3 1 0 1c1 2-1-1 0 0h1zm2 1c3-1 0-1 0-2zm3-7v2h-1v-1c2 0-1 0 0-1m2 3h-1zm3-8q2-1 3 1h-1zm0 0q-1-1 0 0m3 3h-1zm-1 3q0-1 0 0m0-4q2 2 0 0m-2 11v2l1 2q2-1 2 1l-2-1-1-1h-1l-1 2h-1v-2l-2 1h1l1-2 1 1v-1c-1 1-1-2-1-1l-2-2 2-1c-8-4 2 0 2 2l3 2v-2l1 2-2-1zm-2 12 2 1zm1-2c-2-2 1 0 0 0m0 0h2zm1-4v1l-1 2-1-2 1 1zm2 5q-1 0 0 0m0-3-1 1zm0 0-1-1h2zm0-2v-1c3 1 0 1 0 1m-6-7v1zm-2-6v3zm2 3 1 1zm3 4-1-3c1 1 8-1 1 3m1-7q-2 0-1-1zm-1 1q2 0 2 3zm0-3h2zm0-1 1-1zm1-2h1zm0 0-1 1q-1-1 2-1m0 4h-2c-2-2 2-1 2 0m-5 1q-3 0 0-1zm0 7v1l-1-1zm-2 6 1-2 2 3 1-1 1 1-1 1v2h-2v-1c0 2-1-1-1 1l-1-3h1v-1zm7 18q1 1-1 1zm-1-1q0-1 0 0m-1-5c-1-3 0 1-1 0h-1q-1 1-1-1h-1l5 1zm0 6-1-1zm-1 1q-1-1 0 0m0-2q-1-3 1-1-1-1-1 1m-4 0 2 2h-2zm2-3c-2-3 1 0-1 1v1h-1v1l-2-2c0 3-1 1 1 2l-1 1-1-1-1 1q3 3 1 0h3v2l-1-1c2 3-1-2 0 1h-3l1 1-1-1 1 1-2-1 1-1h-2 1l1-1-2-2v-1c0 1 4 2 2 0h1l-1-1 3 1-1-1c1 2-2 0-1-1l1 1-1-1 1-1 1 2-1-1 1 1h1l1-1-2-1v-1l2-2h2v1l-2 2 1 1q0-2 1-1 5 4 0 1v1l1 1h-1v-1zm-3 6 1 1zm-4 1q1-1 1 1zm1 2 1 2q-2 0-1-2m-1-1q-2 0-1-1l-1-1h1zm-3-3q2 1-1 1m3-5q0 2 0 0m0 0c2 3-3 1-1 0m1-3q2 2 0 0m-1 0q-1 1 1 2h-1zm0 2q0 2 0 0m3-6q-2-1 1-1h1l-1 3c0-1 3-2-1-3zm1-9c1 2-1-1 1 0zm0 2q-1-1 0 0m-1 1q2-1 0 0m3 6v1zm2 1q-1 2 0 0m2 1q0 2 0 0m-3-5q-1 0 0 0m-2 0h5c0 2-2-1-2 0l1 3q-3 0-1-1l-1-1h-1l-2-1v-1zm-1-6q-1-3-3-2l1 1h-1l1-1q4 0 2 2m-4 0 1 1zm-7 21q-1-1 0 0m5 11h-2zm0 0c0 2-3 0-1 2h-1l2 1h-2v1l-1-1-1 1v1l-1-1q-1-2 1-2c-2 1 1 2-2-2q5 0 0-1v2-3l4 2-1-1v-2l2 1zm-7 9h-1zm0 0v-1zm-2-1c-3-2 0-2 1-2l1 1q-1-1-2 1m-1 5c0-1-1 1-2-2q2-1 2 1c-3-2 1 1 0 1m-4-6 1-1v1zm-1 6q2 0 0 0m0 0q3-2 2 1zm-1 5-1-2c1 2-1-1 1-1zm-2-12-3-2h3zm-3 4c2-1-1-1-1-1q1 0 1-1 2-1 2 2zm0 9q-3 0-2-1zm-2 1q2 0 0 0m-1-3h1zm-1-2 1 1q-1 1-1-1m-1-2q-1-1 1-2zm0 4v1zm0-3q0-1 0 0m0-4v-1l1 1q2 1-1 1m2 2v-1c-1-2 2 1 0 1m0 3q2 1 0 0m2-11q2 2 0 0m3 3q0-1 0 0m1-3c-2-3 1 0 2-1zm2 13h1l1 1zm2-15h1zm0 0q-1-3 1-1h2q-2 0-1 2c0-3 1 0 2 0l-1-1v-1l-1-2h2l2-1q0 2-1 1l1 2-1-1h-1s-3-2 0 2v1l1-1c1 0 2 3 2 0q1 2-1 1h-2l1 1h-2l1-1h-3m5-6-1 1v-1zm1 5-2-1zm-4 6v-1h1l1 2zm1-2q-1 0 0 0m0 0h-1zm0 2v1l-1-1zm0 4h1zm4-8h1zm0-5q0 2 0 0m1 11q2 0 0 0m2-16h-1zm0 0q2 0 0 0m1 1v1zm0 0 2 1h-1l-3-1zm1 2q0 2 0 0m-2-1s-1 3-1 1v-1zm-1 2q0-1 0 0m-9 0v-1h1v1m-13 27 1-1v1h1zm8-4q2 0 0 0m0 7q0-4 0 0c-2 0 0-2-2-1q1-3 2 1m0-11q-1 0 0 0m0 0h-2c7-5 5 2 3 0m15-7q2 0 0 0m4 4q3 1 1 2zm2 4h1m-5-1h2zm0 2q0-1 0 0m-1 1 1 1zm6-18 1 2v-1c0 2-2-3 0-2m12-14v1zm-2-7h3zm3-2-1-1h4q0 2-1 1l1 1-3-2zm3 3c1 2-3 2-1 0l-1 1c0-4-1-1 1 0m0 1q0-1 0 0m0-3q-1 0 0 0m-2 5v1zm3-20h1l1 1h-1l-1 1q-1 1-1-1 1 1 2-1zm3-1q2 0 1-1m0 6-1 1zm-1 0 1 1m-3-1 2 2zm7-2q0 2 0 0m1-6 1 2h-1zm4-8 2-1-1 2v-1h1l2 1-1 1v1l-1-2-1 1 1 2-1 1v-1l-1-1h-1l-1-1q2-1 2 1l1-1zm6-1-2-1q1-1 2 1m-1 6-1 1zm0 6-1 1h-2l1 2c-2-1-1-5 0-4zm1 5 2 2-2-1zm3-3h1v2h-1q-2 1-1-1h-1c-2-3 1 0 1-1m1 3q-2-1-1 1l1 1h-1l-1-3q2 2 3 1zm-5-1q2 0 0 0m-3-4h-1zm0 7 1-1zm0 1v-1zm1-11v-2l1 2zm0-7h1zm0-3q0-1 0 0m-3 12q0 2 0 0m0 1h-1zm-1 0 1 1 2-1-3 1-1-1zm-1 3 1 1h2q-3 1-3-1m-1 0c0 2-3-1-1 0m0-7v1zm0 0h1zm0 17-1-1zm14-11v1zm0 0v-1zm-2 0q-2 0-1-1zm-2-5q0 2 0 0m-17-12q-1 0 0 0m0 0q0 2 0 0m-1 5v-1zm0 0q-1 0 0 0m0 0v-1l1-1v-1q2 0 1 1h-1v2zv1c0-1-3-1-1-1m2-4q2 2 0 0m1-7h1zm1 6q-1 0 0 0m-4 6c-1 3-2 0 0 0q-1-1 0 0m5-12q0-1 0 0m4 0 1 2-1-1 1 3c1-1 0 2-1 1q1-2-1-1l-1-2v-1 1l1-2-1-2c0-2 1 2 3 1m1 0v-1zm0 3q-1-1 0 0m-2-4q-1 0 0 0m6 1-1-1zm0-2q2 0 0 0m0 1q-1 0 0 0m4 1c-1-1 2-1 0 0q0-1 0 0m0-3q0-2 1-1zm1 1h-1zm3 4v-1zm-2-7q-1-1 0 0m-1-1h1zm-2 0q-1 0 0 0m-7 4h-1zm-11-1c3 2-3 3-2 2zm-5-2 1-2 1 1v2zm4-2q-1 0 0 0m-1 1c-1 1-2-3 0 0m-2 2 2 1zm2 3h-1zm1-7-2-1zm-1-2q-1 0 0 0m-5 12q-1-1 0 0m-1-2-1-1zm-5 3q2-2 3-1zm3 0q0 2 0 0m-3 3v1zm0-3q0-1 0 0m-2 7 1 1zm0 1h-1l-2-1h2l-1-1zm-3-2-1-1zm0 0h-1l1 1h-2v1h-2c2 2-1 0-1 2q-1-1 1-1l1-3-2 2-1-1c-5-2-3-3-2-1l-3-2 3-1c-3 0 1 2 0 2h2q-1-1 1-1h1l1-2v1h2v-1c2 2-2 1-1 3q3-1 1-3l-2-1h3q-1-1 1-1h1l-1 2 1 1h1-1v2c2 2-2-1-2 0zm-4 6h-1v-2l-1 1zm0 1q0 2 0 0m-2 0q0-1 0 0m-3 0 1-1m0-1-3 1h2l-2 1h-2v1h-1v4-1h-1v1q-4 1-1 1h-2v1q-1-2-2-1v1h-1l-1-1 2-1v-4l1 1q-2 0-1 1v-1l1 2h1l2-1h-2 1v-2l-1-2h3l-3-2q2-2 3 1l1-1q0 3 2 2 0-2 1-1-2-3 1 0 3 0 0-1v-1l-1-2-2 1 1 2-1-1-1-1-1 1v-1h3l-1-1h1c1 2 2-2 5 1l-1-1c-2-3-2 0-4-2v1l-1-1v-1h1l2-1q1 1-1 1l4 1h-2c1 2 2 0 2 2v1h2v1l1 1zm0 0q0 2 1 1zm-2 7q1 1-1 1l-1-2h2q1-1 2 1l-1-1q1 1-1 1m-8 7-2-1 1-1-1-1h1l1 1 2 1-2-1zm1-3q0 2 0 0m-9-7v2l-1-1c3 3-1 0-1 0v1h-1q-1-2 1-1l-1-1v-1zm0 0q-1 1 2 2h-2 1zm-1 2-1-1zm0-5q0 2 0 0m3 2 1-1 1 2zm4-5 1 2h-1v1q1 2-1 1l1-1c-4-2 1-2 0-3m0 5v-1l-1-1 2 1m1 3c-1 0-2-3 0-1zm-4-1 1 1v1zm9-3-1-2h2zm0-6q2 2 0 0m3-4h-1zm5 5h-2v-1zm3 2q0-1 0 0m-2-1h2zm2 0 2-1zm-7-12 4 3h1l-2-1v-1h3l-1 1c2 3-3 0-4 0l1 1h-2 1zm3 4c0-1 4 2 2 2zm0 1h-1zm4-5q0 2 0 0m3-3 2 1c-1 1 3 1 1 2q0-2-2-1zm4 11q0 2 0 0m-1-4q0-2 2-1v1zm1-3c2 1-2 0-1 3h-1q0-3 1-2l-1-1zm0 0q-1-1 1-1c2 3-1 1-1 1m1 0q0-1 0 0m-5-8-2-1zm1 0-1 1m1 2 2 1zm0 0q-1-1 0 0m10-3h-2q0-2 1-1h1m-2 3 1-1zm2 1h1m-7-7v2zm-37 32v-1m-2-5q2 0 0 0m-4 9h-1zm-2 0v-1zm-1 0-2-1zm12 2q2 1 0 0m-7 5 1 1c-2 1 1 1 1 1h1l-1 1-3-2m-1-2v1zm2 0h-2zm1 1c-1 1-2-2 0 0q-1 0 0 0m-6 2 1 1zm-2 2h-1zm-15-5q3 3-1 1v-3l1 1zm0 0-1-1c1 1 5 3 3 0l1 1v-1l1 2h-4zm-6 9-1-2q2-1 1 2m-1 9 1 1h-1zm-1-2 2 4-1-1-1 1-1-2h2v-1zm1 2-1-1zm-2-13q-3-2 0-2zm-1 13v2zm-3-16 1 1zm16 35-1-1zm0 0h-2c-12-14-1-2-2-8l1 1v-1l-1-1v1-1h-2v1l1 1h-1l-1-1h-1 1c-2 0-1 1-8-7h2v-2 1l1 1v-1s3 3 0-1h1l2 2v-1l3-2h1v-1c2 2 1-1 2 0l1-1h-1l1-1h-1c0 2-2-3 1 0l-1-2 2 1-2-2h3v-1l1 2 1 1v-2 1l1-1q0 3 3-1l2 2h1v-1l-1-2q0 3-2 1l2-1h-3 4v-1h1l1 1-1-2v-1 1h-1l-2-3h-1l-1-1-1 1 1 2h1v-2l3 2-2 1h-1l2 1c-3-1-1 0-3-3q-2 1-1 2v1h1l-2-1v1c-3-2 1 1 0 1h-1l-1-1c1 3-5-1-3 1h-2l-1 1c-2-3-1 0 0 0q-1 1-3-1l2 3h1-2l2 2-2-1 1 1h-3l-2-1c2-2 2-6 4-3l1-2q-1 2-3-1h4-1v-1l-1 1v-1h-1c3-4 2 1 4 2v-2c-1 0 3 1 0-3h-1q6-1 4-2h3v-2 1c-2-1 1 3 1 2v-2c0 2 3 2 1 1v-2h2l-1 1 1 1-1-1c2 4 1 0 2 1h2-1v3l1-1 2 1 1 1v-1 1q1 4 4 1 1-2-1-2l3-2 1-2 1 2-1 2-1-1v-1l-1 2q2-1 2 1l3-2-1-1 1 1 1-1 1 1h1l-1-1 1-1-1-1c2 0-1 0-1-1h1l-1-1c3 0 1 3 2 1l1 2h2l-1-1-2-1h3l-1 1h1l1 2v-1c2 2 1-2 3 0l-1-1q2 0 1-1l3 1v-1l-2-2c3 2-2-1 0 0h-2l1 2-2-2v2h-2l-1-1h-1l-1-1q5 1 9-2l-2-2 1-1c2 1-1 5 2 4v1h2l1-1-1-1 1 1-1-2h2v1l1-1 1 1-1 1 2-1c-3-2 2-2 1-3v-1l1 2 1-1-2-1q3-1 4 1l-2-2h2l-1-1v1l3-3h2-2c2 0-1-1-1-2v2h-1q2 1-1 1l-1-1 2-3 1 1v-1c2-1 3 2 2 0h1l1-1v-1h-1 2l-1-1h3l-1-1 1-1v3c3-1 0-3 4-3l1-1-1-1 1-1v-1c1 2-1-2 0 0h2l-2-2 1-1 1 1h1q1-2-2-1l3-1v1q-1-1 2-2l-1-1 2 1c-2-3 3 0 1 0v-1 2c-2 2 2 1 1 0l2-1 1 1v-1l-1-1c2 1 4-2 6-1l-3 1q1 2-1 2v1c0 1 0-2-1-1v1l-1-1 1 1q-2 0-1 1 2 2 0 0c1 2-2-1-1 1q2 1-1 1h1l-1 1v-2l-2 1 1 1h-2c-1 1 2 3-2 2v1s4 3 0 1h-2q0 3-2 1l1 1h-2c2 0-2 1 1 2h-1l-1 1q3 1 0 1h-1l-1-1c1 1-2 1 0 1l1 1v2-1l1 2-2-1q-1 3-1 0-1 0-1 1c1-1 1 2-1 1l1 1h1-2v1l-2 1 1-1 1 1v1l-3-2 1 1-1 1h-1q1 1-2 1v1c-1-1-6 1-1 1l2 2-3 1-1-1h2v-2l-3 2h-1 1q-1-1-1 1h-2l-2-1 1 1h-1v-1h-1l-3 1v2l1 1h-3v-1 3c-1-3-2 0-3-1h-1l4 2h-5v1l-2-2v-1l-1-1h2l1 1v-2l-3 1-3 2-1-1h-2q0 2 1 1l-1 1 1 1v1l-1 1-1-2q1 3-2 1v1q-3-1-2 1h-1v1l-2 1q0-2-2 2h2l1-1c0 2 1-1 1 0v1l4 2c-2-1 1-1 0-2v1l1-1 1 2h-2 1l-2 1q3-1 2 1l1-1v2l-2-1q3 1 0 2l-1-1-1 1v-1l-1-1h1l-3-3v1c-1 0 1-1-2-1l-3-2v1h1l-2 4v-1l-2-1-1-1v1h1l1 2 2 1v-1l1 2v-3q2 2 1 4h1c-1 2-3-2-2 1l1 1v1h-2l1 1-3 1h1l1 2-2-1h-2l1 2h1l-1 3c-1-2-1 2-3 2m-4-20 1 1-2-1zm61-27q0-1 0 0m0-2q-1 0 0 0m-10 12q2 2 0 0m0 0q-1 0 0 0m-10 75-2-1 1-4q3 3 1 5m7 15 2-2c-3 1 0-3 1-3q2 5 6 4c0-1-2-5 1 1q-3 3-10 0m9-6q-1-1-1 1l-1-2 1-1c-1 2 1 0 1 2m2 0c3 0 0-3 0-2h1l2-1c-1 1 3 0 1 2h2l-3 1-1-2h-1l1 2zm0 0c3 3-7 3-2 2-3-1 0-1 1-1v-1m4 4-2 1v-2q-1 1 2 1m-5 1v-1zm84-35v-1h1l1 2zm0-2q0-1 0 0m3 0c-2-4 8-2 9 2-2 2-5-4-8-2m11-25q-1-1 0 0m2-6-1 1-1-1q2-1 3 1m-3-4 1 2h-1zm3 1h-1zm2-7h-2 2m0-2h-3 1v-1l1-2 1 1-1 1zm-3-19h-2zm0-16-1 1zm0 2 1-2q2 3-1 2m1 17-1-1zm9 1h-1c0 1 3 0 0 2l-1-1-1 1 1 1c-1 0-11-1-4-3l1 1c0-2 2 2 0-1h1l1 1 1-1zm-7-26 1-1q1 2-1 2l1 1v2c-1 0 1-2-2-1zm-1-1q1-1 1 1zm8-21c-5-1-6 2-7 1l-1 1h1l-2 2q2 2-3 3 0 1-1 1l1 2q-3 1-2-1l-3 2 2 1h-3l2 1-2 1 1 2c-1-1-2 2-2-1l1-2h-1q1-1-1-1c1 6-1 3-3 5v-2l1 1q1-1-2-1 1-1-1-2l1 1q-3 1-1 2c-1 1-5 1-3 3h-2v-2h1q2-1-1-2l-1 2-1-1 2-1-1-1q1-1-1-2h2v1-1l1-1q0 2 1 1v1h-1l3 1v-2l-1-1 2-1-2-2h-1l1-1v1l1 1 2 1-1-3 2 1-1 2 2-1 1 1c-2-1 2-1 0-2h2l1 1h1l-1-1v-1q3 0 2-2 5-2 3 2l1-5 1 1c-3 0-1 3 1-1v1l4-3h-4v-1l-1-1-1 1v-2h-1l-1 1q2 0 1 2 0-2-2-1v-1 1q0-2-1-1l1 1c-1-1 0 2-1 1v-1h-1l2 2-2-1-1 1v-1q0 2-1 1v2l1 1-2-1 1 2-4-1v-2l-1-1 2-2 3-2q2 2 1-1l-1 1 1-2 1 1v-2l1 1h1v-1h1v-1h-2l-1-1 1-1h-3l1 2h-2q-1-2-2-1 1 1-2 2l1-1c-1-1-1 2-1-1h-3l3 2-3 2v1h-1l2-4q-1 2 1 2c-2-4-2-2-5-2v-1h2l-2-1 1-1v-2h-2l1-1-2-1h-1c1 2-3-1-2 2l1-1h1c-3 1 0 0 1 1v-1l2 3h-8q1-1-1-1l1-1h1l-1-1-1 1-1-2-2-1 4-1 1-2c2 0 0 3 2 2l-1-1c8 3 4 3 4 1l3-1v2l1-1h1l-1 2q1-2 2-1 0-5-2-5l3 1q-2-1-1-2l-1 1-1-1h-1v3h-1l-1 1 1-2c-3 0 0 2-1 2h-3l-1-3 1 1 1-2h-2v-1q-3 1-1 2l-1 1v1h-2c-2-1 0 0-2 1v-1 2l-1 1-1 2 1 1v1c0-2-4-1-3 0l2-1q0 3 1 1l2 3 1-1h4-1v2l1 1v-3l1 2c1-3 1 0 2-2l1 2-1 2q3 1 4-2v1l-1 3v-2l-1 1h-1q-2 0-1-2l-1 2h-3q-1 2 2 3l-2-1 2 3v-3l1 2v2l1-1v-2l2 2-1 1c1 0 0 3 1 1l1 1q-3 0-2 2h-2 1l-1 2h1l3-1q1 1-1 1c1-4-1 3-3 1l1 1h-1v1l2 2c-4-2-2 0-4 3l1 1-2 1c1 0 3-1-2-1v1h-1c1 3-2-1 1 2l-4 2 1 1-1-1h-2v-1c0 2 0 0 2 2h-2l1 1h-3l2 1h-2l1 1c0 2-3 0-3 2q-1-3-3-1-1-1 1-1l-2-2 3-2c1 1 1-2 2 0l1-3-1 1-1-2h-2v3h-2q0-3 1-2 2-3 3-1l1-1h-3l-1-1 1 1h1l4-2v3-2h2c-1 0 2 0 1-1h2v-3q2 3 1 0c0-2 3-1 1-1l2 1q-1-3-3-2l4-1-1 2q2-2 3-1v-2h-3c0-2 1 1 1-2v-2 1-2h1v2h1v-2l-3-1q2 0 1-1l-2-2h-1q-1 3-4 2 0 3 2 1c-1 2 2 2 0 3-3-1-3 4-5 2v2l-1 1h-1c-3-5-3 1-3-1q0 3-1 2h1l1 2-1-1v2l-1 2c-4-1-4 2-4-1h1c-1-2-2 2-3-1l-2 2c1-2 3 1 4-1v3c0-2 0 1 1 1v-1c1 2 3 0 1 3l-1-1-2-1c2 0 0 2 3 3l-1-1c3 0 0 1 2 2h-1l1 1-1 1v-2h-2l-1 2 1 1h1c1 3 3-2 2 4h-2v1l3 2-5-1 3 2h-2l1 1 2 1h-2l1 1 1-1 2 2 1-2v1l2 1q-3-3 0-2l1-2h-2l2 2-2-1h-3v-1h-1l1-1 2 1v-1l-1-1 2-2c0 2 2-1 1-1l2 1c-1-3 1 0 1 1l-1 1 1 1q1-1-1-1h2q-2-1 1-2l2 1v-2l1-2h-2v-1c1 2 1-1 2 0-1-2-3 0-1-2h1l1-1 3-2h2c-2-2 2-3 1-1l1-1 1 1c-4 0 1 2 2 1v-1 1l1-1 1 2h-1l1 1v-2c2-2 4 0 6-2h2q-2 1-2-1l2-1-1 1h2l-1 1 4-2-1-1h2v-1h-1q0-2 2-1c-1-2-2 0-3-2l3 1 1-1 2 5h-1c0 4-1 1-3 0l1 2-3 1-1 1 1 1h-1l3-1v-2q-1 1 1 1l-2 2c3 0 0 0 0 0h-1c2 1-1 1-1 1q2 1 1 2-2-1-1-3h-3c1-2 0 1-1 0 1 2 2 0 2 2h-1q1 1 2-1l1 3c0-3 2 1 3-2l1 1 1-1v-2h1v2-2l2-1-1 4q0 4-1 2h-2l-1 1 2-1-3 3-1-2 2 3-1-1v2h2l-1 8v-1l-2 1c2 1 1-2 3 1h-2l1 2h-1v1h-1v1h1l1 1-3-1 1 1-1-2-3 1c0 2-3-1-2 1q3 1-1 1l1 1h-1v-2l-2 2v1c-4-2 0 4-4 2l-1 2c2 0 2 4 1 2l-1-1h-1v1l1 1v1l-1 1v-1h-2v3l-3-1v2-2q-2 1-1 2h-2 1l-2 1v-1l-1 2v-1l-1 1 2 2h1l1-1v-1h1l1 1 1-1q0 3-3 2l1-1-1 1-1 2-2-2-1 1 1-1c2 5 1 1 5 3l2-1-2-1 1-1 2-1-1 1h2c3 0-2-3 1-2l1-1q-6 0-3-2l3 3q1-1 2 1c2-1-2-3 0-5-1 4 2 1 4 2l1-4-1-1q1 1 1-1-5 2-5-1l2-1c0 2 3 0 4 2h-1l1 1v3l1-2h1q-1-1 1-1v-2h-2l-1-1h4q0 3 3 2h1c2-3-1-2 0-4l2 2q-2 4-1 7-2 0-2 1s-3 2-1 2h-2l-2 3h-1l-2 1 1 2c2 0 1 3 0 1v-1l-1-1q1 3-1 1c1 3-3 2-1 3l-2 2-1-1h2l-2-1-1 3-1-2h1v-2h2l1 1v-1h-4c1 2-2 1-1 3q2 0 1 1l1 1q1-2 2-1c2 1 4-3 5-2v2c4 1 3-2 5-2l-1-2h-1l1-1v-1l-2 1 2-1q0-2 2-1c-1-2 2 0 0-2l3-1 1 1h-1q3 1 2 2c-4 0 3 1 1 1l-3 1-2-2 1 2h-3l2 1-2 2v1h1v1q1-1 1 1 0-2 1-2l1 4 2-2v2h-1 1q-1 3-2 0c-1 1-4-1-2 2h1l-1 1h-1l-1-2 1 1-1 1-1-1c-1 5 0-2-2-2l2-1-1-1h-2v1l-2 2-4-2q3 0 1-2c1 2-2-1 0 1l-1 1-1-1h-3c1-2-3-1-2 1v1l4-1v2h4v1h-1c0 2 2 0 0 2v-1l-1 1q2 0 1 2l-2 1h2l-1 1h4-1c-1-1 1-5 3 0-1 0 1 6 3 4-6 5-3 4-1 9-6-3 0 6-5 4q3-3 1-7-4 5-3 9h-1v1c1 2 0-2-2 1 2 4 0 2-1 4l-1-2q3 0 1-1h1l-2-2h-1l-2 1-1-1h1-3c-3 2 0 1 0 2h1v1h-3 1l-3 1h1c-1 2-1-1-2 0l2 2q-2 0-1 1-3 0-2 2h-2l-1 1c-2 2-2 0-1 2l-2-1-1 2h1v3l-1-1q2-1-1-2v3-2l-2-1v4l3 1h-2v1-1 1l-1-1-1 1v-1l-1 1-1-1 2-1v-1l-1-2v2h-2c0 5 2 2 3 6-1 0-1 3-2 0v-1h1v-1l-3-1 1-2c-1 2-3 0-2 2l3 2v3c-1 0-6 4-4 4l-4-2v2l1 2-2-2q-1-2 1-1v-1l1-1v1q0-2 1-1v-2h-1l1-1h1l-1 1 2-2-4 2h-1l-3 3v-1c0 3 0 0 1 2-4 3 3 1 1 3 4 0 1 1 0 1q8-1 12-8-1-1 2-1 0-2 2-1l1-2-1-2 1-1v3c3 1-1-2 2-2l1 1v-1l-2-1h2l-1-1 1-1 3 1v-1q4-1 2-2l1-2h-1v-1l1-1c1 0 2 5 2 1v-1l1 1q1-2-2-4l2 2-1-1 2 3v-3h1l-1-3h3q0 2-2 1l1 1 2-1q1 0 1 2l2-2c2 4-3 13-5 16 0 2 5 3 4 6h-3q3-1 0-3c1 2-8 1-6 3 5-1 1 4-1 5 2 2 6-1 5 2-5-2-1 1-1 3h-5c3 1-2 3-2 4 5 1-2 4 1 6q3-1 2 1c-8 0-7-8-11 4l-3-3c-9 22 3 5-16 18 1 9-11-11-15-6v-7q-2 3-4 2c3-4-6 0-2-5-5 4-5-1-8 4q0-2-3-2c1-3 6-2 4-4q-2 2-2-1v-1 1h-2c2 0-2 6-3 4 5-6-1-1-3-3 3-1 1-3 2-5 3 5 3-3 7-1v-2l-2 1 2-1-1-1q2-1 3 1l2-3h-3 1c2 1-2 2-2 0h1l-2-1v1h1l-2 1c-3 2 0-1-1-1v3h-1v-1h-2l1 3h-2l-3-2h1c0-2 5-2 3-3l3-2c-3 1 1-3 0 0l2-1q2 2 3 1c2 4 1-2 0-1l-1 1v-1l2-2 1-1-1-1h3c-1 0 2-2 0-2l1-1-1-1 3 2c1-1 5-2 3-3 3 0 0-1 1-2l1-1h3l1 1h-1q1-2-1-2h1q0-2-2-1l2-1 1 1 2-1-2 2c0 1 4-3 3-4h2l1 1c0-6 0 2 1 0l-2-4 2-1s-3 0-1-1l2 1-1 1c3 0 2-3 1 0h1v-2l2 1 1 2-1-2 5-1v2l-1-1 2 2-1 1 1 1v-2q3 2 2-1c1 3 0 0 0 0l2-4h1v1h1l-2 1 2 1 1-2h1l1-1h-1l3-1v-2l-1-1v-1l2-1-1 1 2 2-1-1v-1l2 1 1-3q-2 1-1-1l-3 1 1 1h-1v-2h-1v-1h1l-1-1q5-1 3-4h4l2 1-1-1h2l-1-1h-1q2-2 4-1l-2 1 1 1v1h2l-2-4v-1l3 3q2-2 3 1 1-3 2-2l1-2q-3 1-1-1h1l1 1s4 0 1-2l2-2q-2 1-1-2h-3l1-1h1l-1-1 1-1v2q3 0 0-2 2-1 3 1l-1-1 1 1v2c-2-1 0 2 0 1v-1l2 1 2-1q-2 0-1-1h-2l1-2 1 2-1-2-2 1-2-2h3l-2-1 2-1q-1 2 0 0v-2c-2 0-2 4-3 1 2 0-1 0 0-1l1 1v-2l-2 2 1-1c0 2-1 0-2 2-1-4-1 2-3 0 1 4 4 2 0 1v2l1 2v-1q-2 0-1 1l-2 1 1-1v-1c-1 1-5-1-5 2h2q-1 1-4-1l1 2-1 1v-1l-1-1q1 2-2 2l2 2q1-2-1-2h4l1 2-3-1 1 1v-1q-2 1-1 2l2-1c-2 3 6-1 6 2l-1 1v-2q-2 2 1 3h-2l-1-1h-1v-1 2l-1-1h1l-3-2q0 2-3 1v-1h-1v1h-2l2 1h-4l-1 1h-5 2c0 2 2 0 2 2q-2 0-1 2l-2 2-2-2-2 2h-1c-1 1 2 3 0 3v1l4-1h-1q3 0 1-3l2 1c-1 2 0 0 1 2h-2 2v1l-1 1c-3-2-1 1 1 1l-1-1h2c-2 1-1 4-3 1l-1 1 1 2-2 1-1-2q0 2-1 1h-1v1l-4-2q3-1 2 1c2 0 0-3 2-2v1l1-1-1-2 1-1c-4-1-2 1-3 1l1-3h-1l-2 3q1 3-2 3v2l-2-2 1 1-1 1c1-2-1 1-1-1v-1h-1q-1 2-3 1l1 1h-2l3-3-2 1v-3l2 1h2v-3h2l1-1v1l1-2h-2c2-2-1-2-1-1l-1 1v-1q0 2-2 1l1 1h-1l-2-1 1 1h1l1 1-1 1-1-1q1 1-1 1v-1q-1 6-4 3v1l2 1c-2 0 1 1 0 2l-1-1v1h-2c0-3-1 0-2-1l1-1c-3-2-2 2 0-2h1l-1-1-1 2v-2l-2 2v3-2l-1 1-1 2-1 1 2 2 1 1 1-2-1-1h3l2 1 1-2h-2v-1h3l1 2q-2 0-1-1h-1l1 2-1 1v-1h-1v1l-1-1-1 3h-1v-1c-3 0 0 1-1 2l-1-1 1 3-4 1c4-3 0-2 0-1v-2q2 2 3 1l-2-1h2l-2-1 1-1q-1 1-1-1c5 2 0 1 1-1l-2 2-1-2h-1v1c-1 1-1-2-1-1v3h-3 3l-1 1h-4v2h1l-1 1-2-1h2l-1-2-1 1q-3 0-3 2-1 0-1-1v3-1l-1-1 1 3 1 1c0-3 2-1 1-2l1-1c0 2 1-1 1-1l2 1 1-1h2v-1c-4 1 1-3 2 2h2c-2 0 1 2-1 3-1-3-3 0-3 1l-1-1v1c-3 1-1-1-2-3h1v-1l-3 2c3-2 0 2-1-1v3l2-2c1 0 1 4-1 2v1h1l-1 2-1-1-3 2 1 1q-2 0-1 1l-1 1q1-1-1-3 0 1-2 1l2-2 1 2 1-2v-1l-2-1 2-1 1 1 1-2h-1l-3-2 1 1-1 1v-2c-1 1-2-1-1 2-6 2-1 1 0 2h-4l3 1h-3c0-3 0 0-1-2l-1 1v2h-2v2h-2v-2h-1v2h1v2q-1-1-1 1c-7-3 2-4-2-6-1 2-7 4-9 4l-2-5 3-1q-1-2-2-1l1-2 1 1c-1-1 3-1 1 4 2-4 4-1 6-2-3-5 0-1 1-2q-4-1-3-3h2q-2 0-1-1l3-3v2l2-1-1-1h2l1 1q-1-3 3 0 1-4 4-3 1-2-2-2v-2c-2 1-3 9-4 2l-2-1c-1-1 0 2-1 0 0 1-1-2-1 0v1q-2-3-1 0h-1l-2-1 2 2h-3l-4 2h2v1h-2v-1 1l-2 1-4-4q3 0 1-1h-1v-1c1 2 1-1 2 0v-3l1 2-1 1 4-1v-1 1q-1 1 1 1v1l5-4h-2c3-2-1 0 0-2-6 1-2 3 0 2v1c-3-1-2 3-3 0l1-1h-1l-4 1c-1-4-3 3-3 0q2-1-1-1h1l1 1-4 1v1h-1l-1-1q0 3-3 2v-2l-1 1v2h2v3l-1 1h1-1l-1-1h1-2l1-2-2-1c1 1 4 10-23-24h1v-2c2 3 2-2 4-2l-2-1c2 0-2-3 1 0q0-1 1 0c5 1 2-2 3-2v-1l2-2v2-2h3c3 3 3 0 6 2h-2l-3 2h-2v1l-2-1 1 2h-1l1 2v1l4-2h-1c-2 0 1-1 0-2l1 1v1q2-3 5-2h1l-2-2h1l-1-1 1-1h1l1 3v2l-1-1 2 2q3 0 1 1l1 1h2-2c0 2 2 0 1 3l-1-1-1 2h1v1c-1 0-3-3-3-1v-2l2 2-1-3h-1l1-1 1 1v-2h-1 1l-3-2 1 1-1 1v-1l-1-1v1c-4 2 0 1 1 2h-3l2 1h-2l-1-2c1 1-2 0-1 1l1 1q-3-2 0 1l-2-1 1 2h-1l-1-2h-1l1 2h1l1 3q0-1 2-1c2 1-1-3-1-2h2l2 1 1 1h-2l-1-1 1 1h-1c3 3-2 2-3 1 1 1 4 4 1 4v-1l2 1-2 1h1l-1 2h-2c-4 6 7 0 9-1l1 1v1c-1-2-2 1-3-1 1 1 4 5 4 2v2l-1-1-1 2v-2l-1 2-1-3v2l-1 1-1-2h1c-3-1-3 3-1 4v-1h1q-1 1 1 1v-1c1-1 0 2 1 1v-2h1q-2 2 1 2c0-3 2 0 2-2h2v1-1l1-2h2l1-1c2 2 1-2 3 0l1-2h-2q2 0 1-1h-1 2v-2h2-1l-1-1v-1q2-1 4 1v-2l1 2c1-2 0 1 1 1v-2l1 1 2-1h1c1 3 4 0 3 2v-2q-2 0-1-1c-3-1 3 0 2 2h1-1q5 1 8-5l-1-1h3l1-2c-2-1-2-4 0 0 2 2-2-2 1-2v2-1l-2-2 2 1v-1l3 1-1-1 2-2c1 1 0-3 1-1q0-2 1-1h1l-1-2 1-1h2-1l2 1 2-1-1-1h-2q3 0 2-1h-1l3 1 1-1c2-1-1 3 1 1l1 1-1 1h2v-1l-2-2h2l2 1h-1l1 3q1-3 2-1c1 0 1-3 3-1l-1-2h1c2 1 1-2 4 0q-2-3 1-2-1-2-3-1l-1-1 1 1c0-3 0 0-3 0 0 1 3 1 1 2q1-1-2-1v1l-2 1h-1l-1-1v1c-3-2-3 1 0-2l1-1q0-2-1-1h1l-2 1-1-2h-1v2h-3l2-1q-1-3-2-1 2 2 0 0 1 2-1 1 0 2 1 1l-2 1q3 1 1 2-4-5-3-2h-2c-1-2-2 1-2 0-2 1 1 0 1 1l-1 2v-1h-1 1-2v1l-1-1 2 2q-2 0-1 1-1-1-1 1h-2v1l-2 1h-1v-1l-1-1c2 0-1 0-1-1h-1l1-2-1-1h2l-1 2h2l-1-2 1-1 1 1v2-2q0 2 1 1l-1-1 2-1-1-2 1 1h1l-1-2 1 1v-1h1v2l2-1-2-1c2 1 0-2 2-1h2l-1 1h-1c3 3 7-2 3-3q1 1-1 1l1 1-2-1v-1l2 1-2-2 1-1-1-1h1l1 1h1v-1l1-1h-1c1-3 0-1-1-2l1-1-1-1v-2l2 1h-2l2 1v1c-2-1 0 2 0 1v-1l2 1h2q2 0 1-1-1 2 0 0l1-3q-2 0-1-1c-4 0 0-2 1 0l1-1v1h2l1-1c-1-4 2 0 3 1v-1l-2-1q3 0 2 1h2l-2 1 1 1v-1c1 2 1-2 2 0v-2h2l2 1h1l1-1-1-2 5-2v-1l1 2-1 1 2 1 1-1q2 3 3 1l1-1v-1q-1-1-1 1v-2h-1q-1-1-2 1 1-2-1-2l1-1q0 2 4 1l-1-1h1c1 2 3-2 6 0v-1l-1 1c-1-4-1-1-5-3l1 1h-2v-2l6-2-3 2 5 1h-2c0 2 1-1 1 2q2 0 1-2l2 2 2-3q-2 0-1 1c-1-3-2 0-4-3l1 1q-2 1-2-1-3-1-4 1-2 0-1-2l1 2c1-3-1-1-2-3v2l-1-1 2-3 1 1c3-1-1-3-2-1l-2-1v2-1q-2-1-2 1v-3l1 1 1-1-4-1-1-1 2 1s3 1 1-1l2 1q1 1 1-1h1l1 1h2q-2-2 1-2l-1 2 3-1v-2l-3-1v-2c-2 0 0-4 1-1l-1 1 1-1h1v-1l-2-1h1l-1-1h1l-2-2-1 3h-1c0 1 3-1 1 2h-4v1q6 0 3 1h-1c3 2 0 0-1 0l1 1h-2l1-1-1-1-2 1 2 1-2-1q-3 0-1 1h-2v-1q0-2-3-2h1c1 0 3 4 1 4v-1 1l-1 1v-1h-1v-1l-2-1v1-2h1v-1h-1 2q-1-1 1-1l-2-1 2-1v-2l1 3 1 1v-2c0 2-2-1 0 0l-2-2h1v1h2l-1-2c1 4 5-1 3-3l1-1 1 1v-1l-1-1c3-1 4 2 2 1l1 1v1l1-2 1 1q0-2 3-1l-2-2h1l-2-2c2-1 6-1 0-2l1 1c-2 2 0-2-1-1l-1 3v1h-3v-2h2l-1-3h2v-1l-3-1 2-2h-3 2v-1h2l-1-1-2 1 2-1-1-1-2 1v1q1 1-2 2l1 3v1l-1-2v1h-1v1-3l-1 1h-1v-3c-2 0 1 0 1 1h1l-1-1c1 0-1-3-2-1l1-1-3-2 1-1 1 1v-3h-1l-1 1h-2c2 4-2 1 0 4h1v2l-2-2v2l-2-1c1 3 0 0 0 0 2-2-1-1 0 0l-1-1v1l1 2-3-1v1h2l-1 1c-2 0-3-6-3-4h-3l1 1h-1c-1-1 1-3-2-3h-1v2l-1-1q0 2-2 1h-2c1-2 4 2 1-1q2 0 0 0l1-1v1q2-2 2 1l1-2h1l-2-2h1l2 1h-1c6 3 1 1 2 0l2-1c2 2 1-1 3 0v-1l-1-1c2 2 2-2 0 0v-1l1-1s3 3 2 1l-1-1h2c4 2-1-2 3 0l-1-1v-1h1v1l1 1 3-2 1-2q0 2-1 1 2 2 4 1c-1-2-5-1-4-3h1l-2-1h3v2l1 1c0-4 3-2 0-4l2 1v-2l-1-1q0-3 2-2-1-1 1-3h3v-1l1-1q-3-1 1-3v1l-1 1q3-1 2 1h1l2-1h-1 2l-1-1h-1l-1-1 2 1-1-2 1-1-1 1-2-2h1l-3 1 2 1h-2q-2 0-2 1l-2-1q-2-1-1 1-2 0-1-1h-3l1 4q2 0 1 1c3 1 0 0 2 3l-2 1 1-2-1-1q1 3-1 1v-1h-1v-1l-3 1h1l1 1v1-1h2v1h-2l2 1-2-1c1 2-2 2 0 2l1-1v1h1l-1 2h1q0 2-3 2v-2q-1 2-3 1v2l-2-1q2 2-1 1l1 1c-1-2-4 1-3 1-2-2 1-1 1-2h-1l-3-1c1 1-2 2-1 0l-1 2-1-2-1 1v1c0-2 1 1 1 1v-1l1 2v1l-2-1v1l-1-1v1l1 1 1-1q1 2-1 1 1 2-1 2l-1-2q1-1-1-1l-1-1v-2h-1v2h1l1 2c-3-1-1 1-4-2h1l-1-1h-2 1l-1-1h1c1-2 2 1 3-1v-2l-2-1h1c-2 0 2 2 3 1h1l-1-3q1 2 2 1c-2-2-3 1-2 1h-1l-1 1-1-1h2l-1-1v-1l2 1q-2-1 1-1h-1l1-1h2v1c0-2 0 1 0 0l1-1h-1l-3-1h-1l-1-2q2 1 3-1l-1 1h2v-3h-1 1l-1-2c1 2-2 0-2 2q5 0 0 2v1c-2-2-1 1-2 0h-1l1 1h-1v1h-2q2 0 0 0c0 2 3 1 0 2v1h-1l1 1c-4 3-1-2-4 0l-1-1 1-1c-1-3 4-2 3 1v-4l1 1c-2-1-1 2 0-2l1 1 3-2h-4v-1l-1-1-1 1v-1h2c-1-3 5-4 5-7q2 5 0 0 3 0 0-1l1-2v2l1-1v1h-1 2v-1l-2-3 1 1 2-2 2 2v1c0 2-2-1-2 2q5-1 5-4v-1q0-1-2-1v2l-1 1h1c-3 0-1-3-3-2q2-1 0 0h-1c0 1-4 2 2-5l2 2c-1-5 1-1 2-2h1l-1-1q3 0 3-2l3 2 1-1q-2 1-1-1l-2 1v-2l-1-1h1l1 1 1-1 3 1 1-2h-2v-1h3q-2 1 1 2v-1 1l3 1q0-2 2 1v-2c-1 2 0-3 1-1l-3-3q3 3 0 2l-1 1h-2l2-1-1-1v1-2l-1-1 1-2-2 1 1 1h-4q2-3 3-2l1-1 2 1h2l2-2 1-1 1 2 2-2-1 1-2-1q2 0 1-1l2 1c-5-4-8 1-8-2l2-2-1 2h2l1-1 1 1v-2q3 0 2 2l2-1v1c-3 0 2 1 1-2h1v-2l-1 1c0-4 7-1 4-4h2l3-2-2 1c0-3 2-1 3-3-3-3 1-7 3-4 0 3-4-1-1 3q5-2 3-8c-2 5-8 0-9 6 0-5-1 0-2 2-1-4-3 1-5-3 20-18 53-8 51 21 6 1 1 6 6 9l-5 2q2-1-1-3c0 6-2 4-5 8 3 0 5-4 7 1q-3 3 2 16l-2 1-2-2c-1 5 6 1 6 3-3 3-6-2-7 1zm-9 9q2 0 0 0m-14 10v-1h2l-2 2m-2 1-2-1 2-1zm-2-15-3-2 1-2h2c-1 1-3-4 2-3 0 2-5 0-1 3l-3 1zm0 0v-2h3l-2 2v1l2-1c1 2-2 0-6 3l2-2zm-1-6 1 1c2 0-1 1-1-1m10-5-2 1v2q-2 2-4 1l2-2v1h1l-2-1h-1l-1-1 1-1q2 2 6-1zm-3 12 3-1 1 1q-2 2-5 1zm-10-15 1 2c-3-1 1-1-1-2m-10-7 3-2zm8-2 1 2h-2zm-9 47q5-1 0 0m-1-4v2l-1-1zm1 0h-1q4-1 1 1m-10 0-2 2zm2 6q1 1-2 1zm1-10v-2zm1-11c1 1-3-1-1-1zm1 1-2 1q-1-1 2-1m1 1v1zm5 2c0 2 0-1-2 2v-1c1-2-3 2-3-1h1l2-1h1zm-1-1q3 0 1 1v-1zm-3 0q1-1-1-1h2zm5-12q3 1 2-1v2c1 0 0 3-1-1l-1 1zm2 4h-2zm1 3-1 1h-1q-1 0-1-1c2 1 2-2 3 0m-14 28h1q-2 1-2-1zm37 11c4 0 1 2 0 1m-4 3c3 0-1-1 0-2l-1 1c-2-2 3 0 3-2l1 1-1 3zm-3 2 4-1c-2 4-2 1-1 1-1-1-2 2-3 0m-2-1 1 2-2 1-1-1 2-1c-1 0-5 0 0-1m-2 0-1-1 4-1-1-1 1 1 2-1v3l-1-1zm-3 9-1-1 1-1-1 1v-1h2c3 2-2 0-1 2m-7 6c0 2-2-1-2 0zm12-6-2-3q2-1 2 3m11 5q-3 0-1-1-1 1 1 1m-4 0q1 1-1 1zm-5 2 2 2v-1c-3 2-2-1-1 0zm-2 14 4-1 1 3q-3 1-1-1h-1v1q-1-3-3-1zm4 3-1 1zm1 1-1 1zm-13 23h1zm-11 12-2-2 1-1q1 2 2 1c0 2-2 0-1 2m-23 12 2 2v2l-2-2zm-32 4 2 1h-2zm7-4h1zm0 0q2 3 0 0m15-18c0-2 2 1 0 1zm6 3h-1l1-1zm-1 0v1h-1l-1-1zm0 0h1m7 1 2 1v-1l1 1-3 1zm15-17 1 1zm11-4v-2h2l-1-1 2 1v-1c-2-2 1-4 1-2l-1 1h2l-2 1 2 2h-1q-1 2-3-1zm-3-3 1-1 1 1zm-84 31q2 0 0 0m3 0h-1zm0 0 2 1-2 1-2-2 2 1zm2-4v2l2-1v1q-1-1-1 1l-2-1zm8-2h-1zm-38-29q2-1 0 0m2 7c0 2 1 0 2 2h-1zm7 9-1-1zm-3-3h1zm1 2q-2 0-1-1zm47-20q2 0 0 0m2-4q-1-1 0 0m1 3q-1-1 0 0m2-1h1zm-5-8q0-1 0 0m36-13-2 1v-2zm0-6v1m-3-13q2 0 0 0m5-1-1 1-1-1zm-32-32q-1-1 0 0c1 2 0-1 0 0m3 0v-1zm1 1v-1zm4-7c-3-1 1-2 1-2q1 1-1 1zm3-2-1-1h1zm1 2q2 1 0 0m3 0-1-1zm3 0q-3-2 0-2zm15-17v1zm-10 0h2-1v2zm-23 8v-1zm-1 0q0 2 0 0m94 71 1-1-2 1 1 1h-1c-2 0 0-3-2-1l3-4h1l1-1q1 4-1 4z" style="fill:#fff;fill-rule:nonzero"/><clipPath id="a"><path d="m26 197 385-56 23 196-385 56z"/></clipPath><g clip-path="url(#a)"><clipPath id="b"><path d="m26 197 385-56 23 196-385 56z"/></clipPath><g clip-path="url(#b)"><path d="m302 179 1-1zM50 268l-1-3h2q0-2 2-1l1-7 2-1-1-5 3 3-2-4h3l-1-2 3-1 1 1q1-1-2-3h3v-4l1 1 2-6-2-2 1-1v1l1-1v2l2-4 1 2-2 1c3 1-1 1 2 2l3-4-1-2h3q1 1 2-1v-2l1-1v2l1-2 2-1-1 2 1-2 1 2 7-3v2h2l6 3 2-1v2l1-2v2q5 0 8 3h-1c1 2 4-1 4 1l5 5 3 5c2-1 3 4 5 2l2 6h4l-1 1 2-1v3h2l-1-2 3 2 1 2h5l-1 1c2 0 0 2 2 1l1-1h6v1l5-2 5-3-1-2 1 1v-2l1 2 1-1v1l4-2 6-6v-3q3-1 6-5l-1-2c1 1 3-2 3 0l3-8h-1l2-1v1c0-5 8-8 7-12v-4l2 1c0-5 3-5 3-8l2-1 2-2 2-3 2-1h-1 1v-1q2-4 6-3l8 2q1 1 2-1h2l-1 2q3-1 6 2l7 4h-1q2 3 3 2v1l3 2 2 1 5 3 2 1h2c-2 2 2 3 4 3v2l3-1q1 3 4 1 2-1 3 2l13-4-4 4 3-2 2-2 2-1 2-2v2l3-2 2-2 3-5v1l1-1h-1l-1-2v-3c2 3 3-2 5 2l-1-2 1 1 1-4 1 1q-1-2 1-4v1l3-9 2 1 1-2h-1l1-4v1l1-3-1 1v-2l2-2 1-2 1 1 2-5 1 2-1-2 1 1c2-2-2-2 1-3v1l2-3 1-1 2-1c1 2-2 2 0 3l1-2 2-1 2-2h2-1q0-3 1-1h3l-1 1q3 1 7-1v1l4 2 1-1q2 3 5 3 4 0 4 3l3 2-1-3 3 1q-2 0-1 2l1-1c0 3 1-2 2 1l3 1-2 1 4 1h-2l2 4q2-2 3-1l3 1c-3 1-1 1-2 2l1 2c1-1 1 2 3 1l1 2v-2l4 2 4 1 6-3v2h-1l2 1 2-1v2l2-1-1 2 2-1 2-2-1 3 4-4h-1v2q-2 1-2-1t-2-1l-3 2 1-3-2 2v-2h-2v-1l-1 1q0-2 1-1l-3-1h-1l-2 1-1 2v-5l-1 2-1-1-1 1c0-2-4-1-3-3l-1 1c1-2-2 0-2-2l1-1-3-2q-2 1-5-2l-3-4v-1h-4l2-1-1-1h-2l1-1-6-2-2 4 1-2h-1l1-1h-1v-2l1 1-2-3-1 2-1-3-2 1v-2h-2l-2 1h1-5l-5-1v-1l-2 1-3 2-1-2-1 1-2 1 1-2q-3 0-4 3l-1-1-2 1h2l-2 2v-3l-4 5-1 2-2 1c0 2 2-1 2 1l-4 1c-2 2 0 4-2 5q3 2 2 3t-3-1h1q0-2-1-1h1l-3 2h1l-3 5h1l-1 4c-1 1-1-2-2 1q-1 1-1-2l-3 4v-1l-1 1h1l-1 1 2 2q1 2-2 2c2-1-1-1 0-2l-1 1v-1c-2 1 1 2-1 4h-1l1 2-1 2 1-1-1 3v-1l-2 1-1 1-2-1-1 1h-2v2l2-2v3l1-2 1 2h-2v1h-1l-1-2q-1-1-3 1l-3 1h1q0 2-2 1l-1-2-2 2-1-2-5 2 2-2h-2l-2-1-2 1-1 1-3-4q-3 0-3-3l-5-2c-1-3-2 1-4-1l2-1c1-3-3-2-3-4q-1-2-5-2v-1q-3 1-6-1l1-1c-1-1-1 2-2 1q-2-1-1-3h1q-1-2-3-1l1-1h-6v1h-3v-2l-6 2q2-3 5-3h-3l-2 1 2-1-5 4q0-3-4-1l-2 1h-3l-2 2-2 3-3 2-2 3c3 0 0 1 2 2l-1 2-3 1v-1l-3 1v2h2c-1 3-4 1-4 4v-1l-2 8-1-1-4 11v-1l-1 2v-1l-1 3v-1q-3 4-3 8-3-1-5 1v-1l-6 9q-3-1-5 1-3 2-5 1v2l-1 1-3-3-1 3-4-3-3-1-1-2h-2v-1l-4-5h1c-1-1-4 2-6 1l1-2-3-4q-1-3-4-3h1c-1-1-4-5-5-2q0-3-4-3l1-1-5 1 1-1-3-1h1-3l-2-1-1-2q0 2-2 1l1-1h-4l-2-1-1-1 4 1q-1-1 1-3l-4 1h-4l-2-1h-3v3l1-1h3l-3 1-1 2-3-2-2-1-4 2-2 5-2-1 1-1-3 5c-2 1 0-2-2 0v-1q-4 2-5 6 0 4-4 7l1-1-5 9-6 9v3h-2l1 3c0 3-5 3-4 7h1l-2 4v1l-1-1 1 4c-2 2-3-2-4 2l1 4 2-1v1q3 3 6 0v-2h1l-1 1q2 0 1-2h1l-2-3 3 1c-1-2-2 0-3-2l2-1 1 1v-4zm33-54 1 1zm220-38v2zm80 11-1 1h1zm-28-11 1 2zm-104 40-2-1zM67 236h-1zm312-48-1-1zm-135 24-1-1zm147-26-1 1zm-206 11c2-1 0 3 3 2q-1-3-3-2m63 3v2zm-34-18 3 1q-1-2-3-1m99-14v-2l-1 1zm84 14-1-1v2zm-26-5c-2-2 0 2-3 1l2 1zm21 6h2l1-1h-2zm0 0v2l1 2zm-90-19-1 2zm15-9v2zm43 19 1-1v-1zm-27-17-1-1q-1 1 1 1m-30 84q0-1 0 0m14-15q-1 0 0 0m37-7-1-1zm-116 22 1 1zm146-15v1zm29 6-1 4zm0 0 1 1 1-1zm-89-16-1 2zm68 13c-2-3 0 1-2 0l2 1zm-185 16 1 1 1 2q0-3-2-3m62 13v-2zm54-31-1 2zM66 333l-1-1 1-1zm0 0v-1l1-1-2-2h2l-2-1 1-1 1 1-1-3 1-2h2l-1-3h2q0-2 2-1v-3l1-3v1l2-1q-2-2-1-5l3 4-1-4 2 1v-3l2 1 1 1-1-3 2 2 1-4 1 1 4-4-1-2 1-1v1l1-1-1 3 2-2 2-1-1 2h-1v3l5-2-1-2q3-1 3 1h2q2-3 3-2l-1 2c2 0 1-3 3-1l-1 1c1 1 1-2 2-1v1h8l-1 1q6 1 9 5l2-1v1l1-1v1q5 0 8 3c1 2 3-2 4 1l5 2 6 4h2l3-1 3 3h2q2 1 3-2v2l1-2 2 2 1-1-1-1h3l1 1 2-1 2-2v1h2l-1-1 3-1 2-2v1q6-3 8-8-2 1-2-2l2 1-1-1q2-1 1 1l1-1 1 1c-1-1 3-1 2-3l4-8-1-3 5-5-2-2c2 1 3-2 3 0l1-5 1-2h-1l1-1 1-3 3-2q3-1 3-4l1-3 1 1 1-3 4-4 2 1 2-2 2-1h2l-1-1h2l-1-1h7l7 5c2 1 3-4 5-1l-1 2 6 3 7 3h-1q3 3 4 1v2l3 1h3l5 2c1-1 3 2 4-1-1 3 3 3 4 2v2q3 0 3-2l2 1h2l2-1 1 1 12-7-2 3q-2 0-1 2l7-8v2q5-4 7-9v1-1c-2 0-1-4-1-4 1 2 2-3 4 1l-1-1h1l1-3 1 1q-1-3 1-4v1l3-8c1 2 1-1 3 0v-1h-1l2-4v1l1-2-1 1v-3l2-1 1-2 2 2c-1-2 2-2 1-4l1 1v-1l1 1c2-1-2-2 1-3v1l2-1 3-1c1 2-2 1-1 2l2-1h2l4-1h1l2 1v1l7 1h-1l4 2 1-1c3 5 8 0 11 5h-1l3 1-1-2 2-1v3l1-1c1 2 1-3 2-1v1h3l-2 1h4-2l2 2 2 1h-1c3-3 4 0 6-2l-1 3 1 1c1-1 1 2 3 0l1 2v-2q2-1 3 1h4l6-4-1 2h3l1 1 2-1-1 2 3-2q1 1-1 2 4 0 4-3h-1v1h-2l1-1h-2l-3 1 1-2-2 2v-2l-2-1-1 1q0-2 1-1c-2-2-4 1-4-1l-2 2-1 2-1-4v1l-1-1-1 2c-1-2-3 0-3-3l-1 2c0-3-2 0-3-1 1-2 2 0 1-2-1 2-2-1-3-1l-5 1c1-1-3-2-4-4q-1 2-3 1l1-2h-1l-2 1 1-2q-2 1-5-1l-2 5 1-2-1-1h1-1v-2l1 1-2-2-1 1-1-2-2 1v-2l-3 1q-4 0-8-3h-5l-1-1h-3l1-1-2-1-2 1-2-1 1 1-3 1v-2q-3 0-4 3-2 3-5 2c0 2 3-1 3 1l-3 1h-2l-1 2-1 3q2 0 1 2-1 1-3-1h1v-1l-3 1 1 1-3 4h1c-3 2 0 2-1 4-1 1-2-2-2 1l-2-2q-1 5-3 3v-1 2h1l-1 1 2 2-3 2v-3l-1 1c-2 1 1 2 0 4l-2-1 1 2-1 2h1l-1 2v-1c1 2-3 1-3 3l-2-1c0 2-2 0-2 2v2l2-3v3l1-2 1 2h-2l-1 2-2-3h-1l-1 1-1 2h-1v1q1 1-2 1l-1-2v1l-1 2-2-2-2 2-2 1 1-3-1 1h-3q0 2-1 1l-1 2-3-3q-3 1-4-2l-4-1c-2-2-2 2-4 0l1-1q1-3-1-2l-2-1-4-2-6-1 1-2q1 2-2 2l-1-4 2 1-3-2h1l-6-1v1c-2 1 0-2-2-1v-2l-6 1 5-2h-4 1q-2 2-5 1 0-3-2-2l-5-1-6 3-3 1-2 1c2 2-1 1 0 4l-1 1h1-4v-1h-3l-1 2h2l-2 2-2 2v-2l-2 4-1 4-1-1-2 6-3 5v-1l-1 2-1 3v-1q-2 5-1 9-3-2-5 1l-3 10-3 1-1 2-5 3 1 2c-1 0-1 3-2 1v-1h-1l-2 1 1 2q-3-1-5 1l-2 1-2-2-2 2v-2h-2l-3-1v-1c-1 0-2 4-4 4l1-3-8-2 1-1c-1-1-4-4-5-1l-4-1 1-1-4 1v-1h-2l1-1q-1-1-3 1l-2-3h-3 1l-3-1-2-1v-1l3 1q-1-1 1-3l-3 1h-3v-1h-1l-1-1-3-1-1 3 1-1h1v1h2-3l-1 2-3-5q-6 0-8 4l-1-1 1-1-3 1-2 2q0-2-1-1v-1q-4-1-6 3-1 3-6 3l-8 6-7 7v4l-1-1v3l-2 3-2 2v2h1l-1 4v1l-1-1 1 4-2 1-1 2 1 2 1 1 2-1v1h3zm49-36v2l-1-1zm218-76h1zM89 301l-1-1q-1 1 1 1m328-69v2l1-1zm-150 38v-2l-1 1zm135-32h-3zm-21-10 1-1v-1zm-59 2v-1zm55 2 1 1zm46 52v-1l-1 4zm0 0 1 1h1q-1-3-3 0m4 0v2l1-1zm-145 32v-1zm-56-10c1 0-1 3 2 3zm67 1q0-1 0 0m9 0v-1zm-12 11-2-1zm106-45v-1l1-1zm-41 1v-1zm-174 75v-1zm72-54h2zm88-2 1-1zm82-8-1 1zm-17-11c-2-2 0 2-3 1l2 1zm16 9-1 1q-1 1-1-1h1q-1-3-2-1l-3 1 1-2-2 1 1-2-2-1h-1l1-1h-3l-1-1c-2 0 0 2-3 3v-4l-1 1v-1l-1 2-3-3-1 2c1-3-1-1-2-2q2 0 1-2c-2 2-2-1-3-1h-4l-5-3q-1 2-3 1l1-2h-1l-2 1 1-1h-5l-1 5v-3l-1 1 1-2-1 1v-1h1l-3-2v2l-2-2-1 2-1-1q-3 0-2 2l-4 2-4 1v-1l-3 4-2-1-2 2v-2l-3 3h-2 2l-2 1-1-2-3 4-3 2 2 1h-4c-3 1 0 3-2 4l1 3q-3 1-3-2h1v-1 1h-3l1 1-4 2 1 1-1 3h-2q-2 0-1-2-2 2-4 1v1h1-1l1 3-3 1v-2q-1 0 0 0c-3-1 0 2-2 3l-1-1v2l-1 2h1l-2 1 1-1-4 2-1-2-3 1v2l2-2-1 3 2-2v2c-2-1-2 2-3 1l-1-3-2 1-3 1h1q-1 2-3 1v-2l-2 2-1-1q-2-1-2 1l-2 1 1-3-1 1-2-1q-1 2-2 1l-1 1-3-3q-1 1-3-2l-5-2h1c-2-2-2 2-4 0l1-1-1-2-3-1h1-5v-1q-3 3-6 2l1-2-2 2-1-3h1-3l1-1-5 2v1c-2 2-1-1-3 0v-2l-2 2-3 1 4-4-3 2h1l-2 2-2 1-3-2-2 1-2-1-2 2-3 1-5 4c3 1-1 0 2 3l-1 1h-3l-1-1h-3v2h2c-1 3-3 0-4 3v-1q-3 3-2 7l-1-1-3 5-2 3h-1v1h-1l-1 2v-1l-2 3-1 4h-5l-5 8q-2-1-5 1l-2 1-3 1 1 2h-5v3h-9l-1 1h-1v-1h-5l1-1-4 4v-2l-7-2 1-1c-1 0-4-3-4 0q-1-2-4-1v-1l-3 2v-1h-3l1-1-2 1-3-3-2 2 1-1-3-1h-2l-1-1 4 1v-4q-3 3-5 2h-1l-1-1h-3v2h3-2l-1 3q-2-4-4-5l-7 4-1-1 1-1-4 3c-2 0 1-2-1-1v-1q-4 0-6 3-1 5-6 3h1l-7 5-7 6q-2 2-1 3l-2-1 1 3q-1 3-3 2-3 1-2 4h1l-1 2-1 1v1h-1v3c-1 2-2-2-4 2l2 3 2-1v2h6l-1-2h1v1-2h1l-1-2h2l-2-1 1-1 1 1v-3l3-2v-2h3v-3l2-3v1l2-1-1-4 2 4v-4l2 1v-2h3v2q1-1-1-3 2-2 3 1l1-3 2-1 2-2-1-3h1v1l1-1-1 3 4-3c0 1-3 1-1 2h-1l1 3 3-2v-2h3q0 2 2 1-1-3 2-3l-1 3c2 0 1-4 3-2l-1 1q2 1 2-2v2l7-1v1l9 3 1-1v1l1-1v1q4-1 8 2h-1c2 1 3-2 4 0l6 2 5 2h2q2 1 2-2l3 2 2 1 3-2v1l1-2 1 2h1l-1-1q3-2 5 1l3-3-1 1c1-1 1 2 2 0v-1l4-2v2l8-6q-2 1-1-2l1 1-1-2 2 3 1-2v2c0-2 3 0 3-3v1l5-5v-3l6-4-1-2q3 0 2 1l4-7h-1 2c1-4 8-5 8-9v-3l2 1q1-4 4-6l4-2 3-2h1l-1-1q3-3 8-3l8 1c1 1 1-5 3-2l-1 2h6l6 1h-1 4v2l2 1h2l4 2c2-1 3 2 4 0q0 3 4 2v2q2 2 2-1 2 3 4 1l3 2 11-4-3 3 2-1 4-3 2-1-1 2 8-5v1q2-1 1-2v1-5c1 3 3-1 3 3v-1l1 1 2-3v1l2-3 5-6c0 3 1 0 2 2l1-2h-1l2-3v1l1-2h-1v-2l2-1 1-2 2 2 2-4v2-2l1 1c2-1-2-2 1-2l4-4c2 2-1 2 1 3q2-4 6-6h-1l1-1 2-1 1 1 2-1 1-1 2-1v1l4-1v-1h5q2-1 5 1l-1 1 3-1-1-2 2-1v3-1c1 2 1-2 3 0h-1 3l-1 1c1 1 2-2 3 0h-2l2 2 1 2v-1c2-3 3 0 5-1l-1 2 1 2h2l1 1v-1c2-1 4 3 7 2l3-1 2-2-1 2 3 1 1 1 1-1-1 2 4-1-1 2 2-1zm-295 59v1zm5 10 1 2zm154-48v-2zm56-13v1zm-234 66-1-1zm244-72h1v-1zm59-1 2 1c0 1-1-2-2-1" style="fill:#fff;fill-rule:nonzero"/></g></g><path d="M643 133h32v211h-32zm125 214q-18 0-32-8-13-8-21-22t-8-32v-82h32v80q0 11 4 18 3 7 10 11l15 4q15 0 22-9 7-7 7-24v-80h33v82q0 18-8 32-8 15-22 22-14 8-32 8" style="fill:#fff;fill-rule:nonzero"/><path d="M545 344h-81V138h78q21 0 35 8c17 9 27 27 27 46q0 16-9 28-5 8-14 14 14 6 21 18 11 14 11 33-1 35-31 51-15 8-37 8m-47-176v53h44q12 0 21-7 8-7 8-19 0-14-8-20-9-7-21-7zm0 83v63h49q15 0 24-9a34 34 0 0 0 4-38q-3-7-11-12-8-4-17-4zm388 34 4 11q6 11 15 15 10 6 22 6t20-4q10-5 16-11l21 20q-11 12-25 19c-22 9-48 8-69-4a71 71 0 0 1-37-64 73 73 0 0 1 108-64q15 9 23 25 13 25 7 51zm0-26h75l-3-11q-5-9-13-14-8-4-20-4-12-1-21 5-9 5-14 15z" style="fill:#fff"/><path d="M1124 345q-43-1-74-30a109 109 0 0 1-22-117 100 100 0 0 1 96-64q25 0 43 8 18 9 32 23l-23 22q-9-9-22-15t-30-6q-15 0-28 6-12 5-22 15-9 9-14 23a89 89 0 0 0 0 59q5 14 14 24 9 11 22 15 13 5 28 5 18 0 32-6 12-6 22-15l23 22q-32 32-77 31" style="fill:#fff;fill-rule:nonzero"/><path d="M1259 264v78h-32V202h32v14l1-1q12-16 36-16 10 0 19 3 8 4 15 13l-21 21-8-5-11-2q-13 0-22 8-9 9-9 27m107 20 4 10q5 10 15 16 9 5 22 5 11 0 20-4 9-3 16-11l20 21q-10 12-25 18c-22 10-48 9-69-3a71 71 0 0 1-36-64c0-26 13-51 36-64a74 74 0 0 1 71 0q15 9 24 25 13 25 7 51zm0-26h75l-4-12q-4-8-12-13-9-5-20-5-12 0-21 6-10 5-15 14zm223 0-32 84h-19l-57-140h34l33 89 32-89h19l32 89 33-89h34l-57 140h-19z" style="fill:#fff"/></svg>